# Blender v2.78 (sub 0) OBJ File: 'ap01_cobertura.blend'
# www.blender.org
mtllib ap01_door.mtl
o Plane.008_Plane.002
v 0.018372 -0.249008 0.403870
v 0.018372 -0.449194 0.403870
v 0.018372 -0.249008 0.317941
v 0.018372 -0.449194 0.317941
v 0.037325 -0.249008 0.317941
v 0.037325 -0.249008 0.403870
v 0.037325 -0.449194 0.403870
v 0.037325 -0.449194 0.317941
v 0.041379 -0.317586 0.353041
v 0.041379 -0.317586 0.368771
v 0.041379 -0.336309 0.368771
v 0.041379 -0.336309 0.353041
v 0.067055 -0.317586 0.353041
v 0.067055 -0.317586 0.368771
v 0.067055 -0.336309 0.368771
v 0.067055 -0.336309 0.353041
v 0.080051 -0.296355 0.335203
v 0.080051 -0.296355 0.386608
v 0.080051 -0.357541 0.386608
v 0.080051 -0.357541 0.335203
v 0.103576 -0.296355 0.335203
v 0.103576 -0.296355 0.386608
v 0.103576 -0.357541 0.386608
v 0.103576 -0.357541 0.335203
v 0.111874 -0.303513 0.341217
v 0.111874 -0.303513 0.380594
v 0.111874 -0.350382 0.380594
v 0.111874 -0.350382 0.341217
v 0.018372 -0.401879 0.403870
v 0.018372 -0.401879 0.317941
v 0.037325 -0.401879 0.403870
v 0.037325 -0.401879 0.317941
v 0.037325 -0.397744 0.394729
v 0.037325 -0.406013 0.394729
v 0.037325 -0.397744 0.329178
v 0.037325 -0.406013 0.329178
v 0.030706 -0.401879 0.394729
v 0.030706 -0.401879 0.329178
v -0.077083 -0.249008 0.403870
v -0.077083 -0.449194 0.403870
v -0.077083 -0.249008 0.317941
v -0.077083 -0.449194 0.317941
v -0.096036 -0.249008 0.317941
v -0.096036 -0.249008 0.403870
v -0.096036 -0.449194 0.403870
v -0.096036 -0.449194 0.317941
v -0.100090 -0.317586 0.353041
v -0.100090 -0.317586 0.368771
v -0.100090 -0.336309 0.368771
v -0.100090 -0.336309 0.353041
v -0.125766 -0.317586 0.353041
v -0.125766 -0.317586 0.368771
v -0.125766 -0.336309 0.368771
v -0.125766 -0.336309 0.353041
v -0.138762 -0.296355 0.335203
v -0.138762 -0.296355 0.386608
v -0.138762 -0.357541 0.386608
v -0.138762 -0.357541 0.335203
v -0.162287 -0.296355 0.335203
v -0.162287 -0.296355 0.386608
v -0.162287 -0.357541 0.386608
v -0.162287 -0.357541 0.335203
v -0.170585 -0.303513 0.341217
v -0.170585 -0.303513 0.380594
v -0.170585 -0.350382 0.380594
v -0.170585 -0.350382 0.341217
v -0.077083 -0.401879 0.403870
v -0.077083 -0.401879 0.317941
v -0.096036 -0.401879 0.403870
v -0.096036 -0.401879 0.317941
v -0.096036 -0.397744 0.394729
v -0.096036 -0.406013 0.394729
v -0.096036 -0.397744 0.329178
v -0.096036 -0.406013 0.329178
v -0.089417 -0.401879 0.394729
v -0.089417 -0.401879 0.329178
vt 0.4074 0.2426
vt 0.4567 0.0563
vt 0.4567 0.2604
vt 0.5398 0.2604
vt 0.5398 0.9200
vt 0.4567 0.9200
vt -0.0033 0.2604
vt -0.0033 0.0563
vt 0.0799 0.0563
vt 0.0799 0.2604
vt 0.6622 0.8519
vt 0.7252 0.8519
vt 0.7966 0.9154
vt 0.5908 0.9154
vt 0.6622 0.7491
vt 0.7252 0.7491
vt 0.8811 0.6284
vt 0.8058 0.6284
vt 0.8058 0.5055
vt 0.8811 0.5055
vt 0.6773 0.4908
vt 0.7361 0.4908
vt 0.7361 0.5965
vt 0.6773 0.5965
vt 0.9174 0.9589
vt 0.8615 0.9604
vt 0.8540 0.8455
vt 0.9100 0.8440
vt 0.9267 0.0864
vt 0.9442 0.4177
vt 0.8682 0.3371
vt 0.8666 0.1610
vt 0.7204 0.4296
vt 0.9665 0.4296
vt 0.8029 0.6874
vt 0.6106 0.6874
vt 0.7841 0.7484
vt 0.9670 0.7435
vt 0.6798 0.1670
vt 0.8310 0.2091
vt 0.7209 0.2089
vt 0.6213 0.4177
vt 0.6038 0.0864
vt 0.6814 0.3431
vt 0.7170 0.2950
vt 0.8270 0.2953
vt -0.0033 0.9200
vt 0.0799 0.9200
vt 0.4074 0.2783
vt 0.5398 0.0563
vt 0.1199 0.2426
vt 0.1199 0.2783
vt 0.4567 0.9737
vt 0.0799 0.9737
vt 0.9400 0.0567
vt 0.5805 0.0567
vt 0.6490 0.0371
vt 0.8672 0.0437
vt 0.0799 0.0025
vt 0.4567 0.0025
vt 0.9357 0.0241
vt 0.5762 0.0241
vt 0.4074 0.2426
vt 0.4567 0.2604
vt 0.4567 0.0563
vt 0.5398 0.2604
vt 0.4567 0.9200
vt 0.5398 0.9200
vt -0.0033 0.2604
vt 0.0799 0.2604
vt 0.0799 0.0563
vt -0.0033 0.0563
vt 0.6622 0.8519
vt 0.5908 0.9154
vt 0.7966 0.9154
vt 0.7252 0.8519
vt 0.6622 0.7491
vt 0.7252 0.7491
vt 0.8811 0.6284
vt 0.8811 0.5055
vt 0.8058 0.5055
vt 0.8058 0.6284
vt 0.6773 0.4908
vt 0.6773 0.5965
vt 0.7361 0.5965
vt 0.7361 0.4908
vt 0.9174 0.9589
vt 0.9100 0.8440
vt 0.8540 0.8455
vt 0.8615 0.9604
vt 0.9267 0.0864
vt 0.8666 0.1610
vt 0.8682 0.3371
vt 0.9442 0.4177
vt 0.9665 0.4296
vt 0.7204 0.4296
vt 0.6106 0.6874
vt 0.8029 0.6874
vt 0.9670 0.7435
vt 0.7841 0.7484
vt 0.6798 0.1670
vt 0.7209 0.2089
vt 0.8310 0.2091
vt 0.6213 0.4177
vt 0.6814 0.3431
vt 0.6038 0.0864
vt 0.7170 0.2950
vt 0.8270 0.2953
vt -0.0033 0.9200
vt 0.0799 0.9200
vt 0.4074 0.2783
vt 0.5398 0.0563
vt 0.1199 0.2783
vt 0.1199 0.2426
vt 0.4567 0.9737
vt 0.0799 0.9737
vt 0.9400 0.0567
vt 0.8672 0.0437
vt 0.6490 0.0371
vt 0.5805 0.0567
vt 0.0799 0.0025
vt 0.4567 0.0025
vt 0.9357 0.0241
vt 0.5762 0.0241
vn 0.9573 0.2300 0.1748
vn 0.5773 -0.5773 -0.5773
vn 0.7071 0.0000 -0.7071
vn 0.0000 0.0000 -1.0000
vn 0.0000 0.7071 -0.7071
vn 0.5773 0.5773 -0.5773
vn 0.0000 0.0000 1.0000
vn 0.0000 -0.7071 0.7071
vn 0.5773 -0.5773 0.5773
vn 0.7071 0.0000 0.7071
vn -0.6841 -0.4942 0.5363
vn -0.6841 -0.4942 -0.5363
vn -0.4488 -0.6352 -0.6286
vn -0.4488 -0.6352 0.6286
vn 0.0000 -0.7071 -0.7071
vn 0.0000 0.7071 0.7071
vn -0.6841 0.4942 0.5363
vn -0.6841 0.4942 -0.5363
vn -0.4488 0.6352 -0.6286
vn 0.3531 0.6659 -0.6572
vn 0.3531 -0.6659 -0.6572
vn -0.4488 0.6352 0.6286
vn 0.3531 -0.6659 0.6572
vn 0.8718 -0.3254 -0.3661
vn 0.8718 -0.3254 0.3661
vn 0.3531 0.6659 0.6572
vn 0.8718 0.3254 0.3661
vn 0.8718 0.3254 -0.3661
vn 0.5773 0.5773 0.5773
vn 0.9573 -0.2300 0.1748
vn 0.9573 0.2300 -0.1748
vn 0.9573 -0.2300 -0.1748
vn 0.8304 0.0000 -0.5571
vn 0.8304 0.0000 0.5571
vn -0.9573 0.2300 0.1748
vn -0.7071 0.0000 -0.7071
vn -0.5773 -0.5773 -0.5773
vn -0.5773 0.5773 -0.5773
vn -0.7071 0.0000 0.7071
vn -0.5773 -0.5773 0.5773
vn 0.6841 -0.4942 0.5363
vn 0.4488 -0.6352 0.6286
vn 0.4488 -0.6352 -0.6286
vn 0.6841 -0.4942 -0.5363
vn 0.6841 0.4942 -0.5363
vn 0.6841 0.4942 0.5363
vn -0.3531 -0.6659 -0.6572
vn -0.3531 0.6659 -0.6572
vn 0.4488 0.6352 -0.6286
vn 0.4488 0.6352 0.6286
vn -0.3531 -0.6659 0.6572
vn -0.8718 -0.3254 0.3661
vn -0.8718 -0.3254 -0.3661
vn -0.3531 0.6659 0.6572
vn -0.8718 0.3254 0.3661
vn -0.8718 0.3254 -0.3661
vn -0.5773 0.5773 0.5773
vn -0.9573 -0.2300 0.1748
vn -0.9573 -0.2300 -0.1748
vn -0.9573 0.2300 -0.1748
vn -0.8304 0.0000 0.5571
vn -0.8304 0.0000 -0.5571
usemtl Knob
s 1
f 36/1/1 8/2/2 32/3/3
f 30/4/4 3/5/5 5/6/6 32/3/3
f 29/7/7 2/8/8 7/9/9 31/10/10
f 15/11/11 16/12/12 20/13/13 19/14/14
f 11/15/8 12/16/15 16/12/12 15/11/11
f 9/17/5 10/18/16 14/19/17 13/20/18
f 12/21/15 9/22/5 13/23/18 16/24/12
f 10/25/16 11/26/8 15/27/11 14/28/17
f 20/29/13 17/30/19 21/31/20 24/32/21
f 13/20/18 14/19/17 18/33/22 17/34/19
f 16/24/12 13/23/18 17/35/19 20/36/13
f 14/28/17 15/27/11 19/37/14 18/38/22
f 23/39/23 24/32/21 28/40/24 27/41/25
f 18/42/22 19/43/14 23/39/23 22/44/26
f 19/43/14 20/29/13 24/32/21 23/39/23
f 17/30/19 18/42/22 22/44/26 21/31/20
f 26/45/27 27/41/25 28/40/24 25/46/28
f 21/31/20 22/44/26 26/45/27 25/46/28
f 24/32/21 21/31/20 25/46/28 28/40/24
f 22/44/26 23/39/23 27/41/25 26/45/27
f 1/47/16 29/7/7 31/10/10 6/48/29
f 5/6/6 35/49/30 32/3/3
f 4/50/15 30/4/4 32/3/3 8/2/2
f 35/49/30 36/1/1 32/3/3
f 31/10/10 34/51/31 33/52/32
f 6/48/29 31/10/10 33/52/32
f 3/53/5 1/54/16 6/48/29 5/6/6
f 31/10/10 7/9/9 34/51/31
f 35/55/30 33/56/32 37/57/33 38/58/34
f 6/48/29 33/52/32 35/49/30 5/6/6
f 2/59/8 4/60/15 8/2/2 7/9/9
f 34/51/31 7/9/9 8/2/2 36/1/1
f 36/61/1 35/55/30 38/58/34
f 34/62/31 36/61/1 38/58/34 37/57/33
f 33/56/32 34/62/31 37/57/33
f 74/63/35 70/64/36 46/65/37
f 68/66/4 70/64/36 43/67/38 41/68/5
f 67/69/7 69/70/39 45/71/40 40/72/8
f 53/73/41 57/74/42 58/75/43 54/76/44
f 49/77/8 53/73/41 54/76/44 50/78/15
f 47/79/5 51/80/45 52/81/46 48/82/16
f 50/83/15 54/84/44 51/85/45 47/86/5
f 48/87/16 52/88/46 53/89/41 49/90/8
f 58/91/43 62/92/47 59/93/48 55/94/49
f 51/80/45 55/95/49 56/96/50 52/81/46
f 54/84/44 58/97/43 55/98/49 51/85/45
f 52/88/46 56/99/50 57/100/42 53/89/41
f 61/101/51 65/102/52 66/103/53 62/92/47
f 56/104/50 60/105/54 61/101/51 57/106/42
f 57/106/42 61/101/51 62/92/47 58/91/43
f 55/94/49 59/93/48 60/105/54 56/104/50
f 64/107/55 63/108/56 66/103/53 65/102/52
f 59/93/48 63/108/56 64/107/55 60/105/54
f 62/92/47 66/103/53 63/108/56 59/93/48
f 60/105/54 64/107/55 65/102/52 61/101/51
f 39/109/16 44/110/57 69/70/39 67/69/7
f 43/67/38 70/64/36 73/111/58
f 42/112/15 46/65/37 70/64/36 68/66/4
f 73/111/58 70/64/36 74/63/35
f 69/70/39 71/113/59 72/114/60
f 44/110/57 71/113/59 69/70/39
f 41/115/5 43/67/38 44/110/57 39/116/16
f 69/70/39 72/114/60 45/71/40
f 73/117/58 76/118/61 75/119/62 71/120/59
f 44/110/57 43/67/38 73/111/58 71/113/59
f 40/121/8 45/71/40 46/65/37 42/122/15
f 72/114/60 74/63/35 46/65/37 45/71/40
f 74/123/35 76/118/61 73/117/58
f 72/124/60 75/119/62 76/118/61 74/123/35
f 71/120/59 75/119/62 72/124/60
o Plane.007_Plane.001
v 0.000000 0.870074 0.653531
v 0.000000 -1.281506 0.653531
v 0.000000 0.870074 -0.675185
v 0.000000 -1.281506 -0.675185
v 0.000000 0.740979 0.653531
v 0.000000 0.740979 -0.675185
v 0.000000 0.870074 0.542804
v 0.000000 0.870074 -0.566436
l 83 77
l 81 78
l 82 79
l 77 81
l 80 82
l 84 83
l 79 84
o Plane
v 0.175725 0.870074 0.653531
v 0.175725 -1.281506 0.653531
v 0.175725 0.870074 -0.675185
v 0.175725 -1.281506 -0.675185
v 0.175725 -1.281506 0.542804
v 0.175725 0.740979 0.542804
v 0.175725 -1.281506 -0.566436
v 0.175725 0.740979 -0.566436
v 0.016534 -1.281507 0.542804
v 0.016534 0.740979 0.542804
v 0.016534 -1.281507 -0.566436
v 0.016534 0.740979 -0.566436
v -0.124275 0.870074 0.653531
v -0.124275 -1.281506 0.653531
v -0.124275 0.870074 -0.675185
v -0.124275 -1.281506 -0.675185
v -0.124275 -1.281506 0.542804
v -0.124275 0.740979 0.542804
v -0.124275 -1.281506 -0.566436
v -0.124275 0.740979 -0.566436
v -0.062653 -1.281507 0.542804
v -0.062653 0.740979 0.542804
v -0.062653 -1.281507 -0.566436
v -0.062653 0.740979 -0.566436
vt 0.7524 0.4998
vt 0.7524 0.0002
vt 0.7792 0.0002
vt 0.7792 0.5317
vt 0.7246 0.5317
vt 0.7246 0.0002
vt 0.7519 0.0002
vt 0.7519 0.4998
vt 0.0002 0.5321
vt 0.0276 0.5002
vt 0.3016 0.5002
vt 0.3284 0.5321
vt 0.2746 0.4998
vt 0.2746 0.0002
vt 0.5486 0.0002
vt 0.5486 0.4998
vt 0.8802 0.4998
vt 0.8533 0.5317
vt 0.8533 0.0002
vt 0.8802 0.0002
vt 0.6505 0.5317
vt 0.6231 0.4998
vt 0.6231 0.0002
vt 0.6505 0.0002
vt 0.0002 0.6062
vt 0.3284 0.6062
vt 0.3016 0.6381
vt 0.0276 0.6381
vt 0.2742 0.4998
vt 0.0002 0.4998
vt 0.0002 0.0002
vt 0.2742 0.0002
vt 0.5490 0.4998
vt 0.5490 0.0002
vt 0.3016 0.7122
vt 0.0276 0.7122
vt 0.9543 0.0002
vt 0.9543 0.4998
vt 0.3545 0.5002
vt 0.3545 0.9998
vt 0.3288 0.9998
vt 0.3288 0.5002
vt 0.2742 0.7643
vt 0.0002 0.7643
vt 0.0002 0.7386
vt 0.2742 0.7386
vt 0.0002 0.7126
vt 0.2742 0.7126
vt 0.2742 0.7382
vt 0.0002 0.7382
vt 0.9547 0.4998
vt 0.9547 0.0002
vt 0.9803 0.0002
vt 0.9803 0.4998
vn 1.0000 0.0000 0.0000
vn -1.0000 0.0000 0.0000
vn 0.0000 0.0000 1.0000
vn 0.0000 0.0000 -1.0000
vn 0.0000 1.0000 0.0000
vn 0.0000 -1.0000 0.0000
usemtl batente
s off
f 92/125/63 91/126/63 88/127/63 87/128/63
f 85/129/63 86/130/63 89/131/63 90/132/63
f 85/133/63 90/134/63 92/135/63 87/136/63
f 94/137/63 93/138/63 95/139/63 96/140/63
f 104/141/64 99/142/64 100/143/64 103/144/64
f 97/145/64 102/146/64 101/147/64 98/148/64
f 97/149/64 99/150/64 104/151/64 102/152/64
f 106/153/64 108/154/64 107/155/64 105/156/64
f 86/130/65 85/129/65 97/145/65 98/148/65
f 87/128/66 88/127/66 100/143/66 99/142/66
f 85/133/67 87/136/67 99/150/67 97/149/67
f 90/157/66 89/158/66 101/147/66 102/146/66
f 92/159/68 90/160/68 102/152/68 104/151/68
f 91/161/65 92/162/65 104/141/65 103/144/65
f 93/163/65 94/164/65 106/165/65 105/166/65
f 95/167/68 93/168/68 105/169/68 107/170/68
f 94/171/67 96/172/67 108/173/67 106/174/67
f 96/175/66 95/176/66 107/177/66 108/178/66
