# Blender v2.78 (sub 0) OBJ File: ''
# www.blender.org
mtllib ramp.mtl
o Cube_Cube.001_None
v 0.598211 -0.375879 -1.000002
v 0.598211 0.709462 -1.000002
v 2.794906 0.709462 -1.000002
v 2.794906 -0.375879 -1.000002
v 2.794906 0.709462 0.999998
v 2.794906 -0.375879 0.999998
v 0.598211 0.709462 0.999998
v 0.598211 -0.375879 0.999998
v -3.393117 -0.375879 -1.000002
v -3.393117 -0.291288 -1.000002
v -3.393117 -0.291288 0.999998
v -3.393117 -0.375879 0.999998
vt 0.3613 0.0385
vt 0.3612 0.2809
vt 0.0197 0.2807
vt 0.0197 0.0383
vt 0.9626 0.0179
vt 0.9626 0.5605
vt 0.0390 0.5605
vt 0.0390 0.0179
vt 0.9753 0.0197
vt 0.9753 0.2886
vt 0.6406 0.2886
vt 0.6406 0.0197
vt 0.3482 0.9860
vt 0.3482 0.6525
vt 0.6518 0.6525
vt 0.6518 0.9860
vt 0.9820 0.0388
vt 0.9819 0.0577
vt 0.3482 0.0837
vt 0.6518 0.0837
vt 0.0326 0.0406
vt 0.0326 0.0197
vt 0.3482 0.0709
vt 0.6518 0.0709
vn 0.0000 0.0000 -1.0000
vn -0.0898 0.7272 -0.6805
vn 0.5774 0.5774 -0.5774
vn 0.7071 0.0000 -0.7071
vn 0.5774 0.5774 0.5774
vn 0.7071 -0.0000 0.7071
vn -0.0898 0.7272 0.6805
vn 0.0000 -0.0000 1.0000
vn -0.7071 -0.0000 -0.7071
vn -0.6358 0.4960 -0.5914
vn -0.6358 0.4960 0.5914
vn -0.7071 -0.0000 0.7071
usemtl None
s 1
f 1/1/1 2/2/2 3/3/3 4/4/4
f 4/5/4 3/6/3 5/7/5 6/8/6
f 6/9/6 5/10/5 7/11/7 8/12/8
f 3/13/3 2/14/2 7/15/7 5/16/5
f 2/2/2 1/1/1 9/17/9 10/18/10
f 7/15/7 2/14/2 10/19/10 11/20/11
f 8/12/8 7/11/7 11/21/11 12/22/12
f 11/20/11 10/19/10 9/23/9 12/24/12
o Cube_Cube.001_None_NONE
v 2.634110 1.538854 0.808439
v 2.741078 1.538854 0.960175
v 0.670071 1.538854 0.960175
v 0.670071 1.538854 0.808439
v 2.634110 1.538854 -0.894371
v 2.623315 1.643782 0.808439
v 2.623315 1.643782 -0.894371
v 0.659276 1.643782 0.960175
v 0.659276 1.643782 0.808439
v -3.395358 0.601262 0.771888
v -3.395358 0.601262 0.923624
v 2.730283 1.643782 0.960175
v 2.730283 1.643782 -0.894371
v 2.741078 1.538854 -0.894371
v -3.384563 0.496334 0.923624
v -3.384563 0.496334 0.771888
v 0.800776 0.686630 0.916367
v 0.852746 0.686630 0.833005
v 0.852746 1.541969 0.833005
v 0.800776 1.541969 0.916367
v 0.761186 0.686630 0.833005
v 0.709215 0.686630 0.916367
v 0.709215 1.541969 0.916367
v 0.761186 1.541969 0.833005
v 2.619740 0.686630 0.916367
v 2.671711 0.686630 0.833005
v 2.671711 1.541969 0.833005
v 2.619740 1.541969 0.916367
v 2.580150 0.686630 0.833005
v 2.528180 0.686630 0.916367
v 2.528180 1.541969 0.916367
v 2.580150 1.541969 0.833005
v -1.381982 0.185075 0.916367
v -1.330011 0.185075 0.833005
v -1.330011 1.030834 0.833005
v -1.381982 1.030834 0.916367
v -1.421572 0.185075 0.833005
v -1.473542 0.185075 0.916367
v -1.473542 1.030834 0.916367
v -1.421572 1.030834 0.833005
v -3.278901 -0.403269 0.916367
v -3.226931 -0.403269 0.833005
v -3.226931 0.570373 0.833005
v -3.278901 0.570373 0.916367
v -3.318492 -0.403269 0.833005
v -3.370462 -0.403269 0.916367
v -3.370462 0.570373 0.916367
v -3.318492 0.550439 0.833005
vt 2.1288 1.3230
vt 2.1983 1.5055
vt 0.8093 1.5106
vt 0.8090 1.3214
vt -0.7577 2.4906
vt -1.8977 2.4906
vt -1.8977 2.3594
vt -0.7577 2.3594
vt 0.8110 1.6407
vt 0.8104 1.8276
vt -1.9888 1.8295
vt -1.9878 1.6329
vt 2.1172 1.8288
vt 2.1915 1.6316
vt -0.7577 2.2264
vt -1.9993 2.2264
vt -0.7577 2.0952
vt -1.9993 2.0952
vt -1.8977 1.9621
vt -0.7577 1.9621
vt -1.9979 1.5077
vt -1.9987 1.3186
vt 0.3366 1.9621
vt 0.3366 2.1509
vt 0.2660 2.1509
vt 0.2660 1.9621
vt 2.1244 1.9594
vt 0.8088 1.9576
vt 0.4083 1.9621
vt 0.4083 2.0952
vt 0.3381 2.1086
vt 0.3381 1.9755
vt -1.9993 1.9594
vt -0.3123 1.9621
vt -0.2466 1.9621
vt -0.2466 2.9491
vt -0.3123 2.9491
vt -0.4394 1.9621
vt -0.3736 1.9621
vt -0.3736 2.9491
vt -0.4394 2.9491
vt -0.5679 1.9621
vt -0.5021 1.9621
vt -0.5021 2.9491
vt -0.5679 2.9491
vt -0.6950 1.9621
vt -0.6292 1.9621
vt -0.6292 2.9491
vt -0.6950 2.9491
vt -0.7563 1.9621
vt -0.7563 2.9491
vt -0.5007 1.9621
vt -0.5007 2.9491
vt -0.0568 1.9621
vt 0.0090 1.9621
vt 0.0090 2.9491
vt -0.0568 2.9491
vt -0.1838 1.9621
vt -0.1181 1.9621
vt -0.1181 2.9491
vt -0.1838 2.9491
vt -0.2451 1.9621
vt -0.2451 2.9491
vt 0.1988 1.9621
vt 0.2646 1.9621
vt 0.2646 2.9491
vt 0.1988 2.9491
vt 0.0718 1.9621
vt 0.1375 1.9621
vt 0.1375 2.9491
vt 0.0718 2.9491
vt 0.0105 1.9621
vt 0.0105 2.9491
vn -0.2935 -0.9153 -0.2758
vn 0.6089 -0.5495 0.5721
vn 0.0813 -0.6705 0.7374
vn 0.0885 -0.6717 -0.7355
vn -0.5443 -0.6032 -0.5829
vn -0.3067 0.8934 -0.3284
vn -0.6089 0.5495 -0.5721
vn -0.0946 0.7262 0.6809
vn -0.0895 0.7287 -0.6789
vn -0.6626 0.4632 -0.5885
vn -0.6677 0.4633 0.5827
vn 0.5443 0.6032 0.5829
vn 0.5443 0.6032 -0.5829
vn 0.6089 -0.5495 -0.5721
vn -0.4716 -0.6751 0.5673
vn -0.4676 -0.6735 -0.5725
vn 0.4853 -0.0000 0.8744
vn 0.8744 0.0000 -0.4853
vn -0.4853 0.0000 -0.8744
vn -0.8744 -0.0000 0.4853
vn 0.9303 -0.0000 -0.3667
vn -0.8088 -0.0000 0.5881
vn -0.4833 0.0000 -0.8754
usemtl None_NONE
s 1
f 13/25/13 14/26/14 15/27/15 16/28/16
f 17/29/17 13/30/13 18/31/18 19/32/19
f 20/33/20 21/34/21 22/35/22 23/36/23
f 18/37/18 21/34/21 20/33/20 24/38/24
f 25/39/25 19/32/19 18/31/18 24/40/24
f 26/41/26 14/42/14 13/43/13 17/44/17
f 15/27/15 27/45/27 28/46/28 16/28/16
f 28/47/28 27/48/27 23/49/23 22/50/22
f 13/51/13 16/52/16 21/34/21 18/37/18
f 15/27/15 14/26/14 24/38/24 20/33/20
f 26/53/26 17/54/17 19/55/19 25/56/25
f 27/45/27 15/27/15 20/33/20 23/36/23
f 16/52/16 28/57/28 22/35/22 21/34/21
f 14/42/14 26/41/26 25/39/25 24/40/24
f 29/58/29 30/59/30 31/60/30 32/61/29
f 33/62/31 34/63/32 35/64/32 36/65/31
f 37/66/29 38/67/30 39/68/30 40/69/29
f 41/70/31 42/71/32 43/72/32 44/73/31
f 42/71/32 37/66/29 40/69/29 43/72/32
f 38/74/30 41/70/31 44/73/31 39/75/30
f 34/63/32 29/58/29 32/61/29 35/64/32
f 30/76/30 33/62/31 36/65/31 31/77/30
f 45/78/29 46/79/30 47/80/30 48/81/29
f 49/82/31 50/83/32 51/84/32 52/85/31
f 50/83/32 45/78/29 48/81/29 51/84/32
f 46/86/30 49/82/31 52/85/31 47/87/30
f 53/88/29 54/89/30 55/90/33 56/91/29
f 57/92/31 58/93/32 59/94/34 60/95/35
f 58/93/32 53/88/29 56/91/29 59/94/34
f 54/96/30 57/92/31 60/95/35 55/97/33
