# Blender v2.78 (sub 0) OBJ File: 'ap01_terrio.blend'
# www.blender.org
mtllib Stairway entrance.mtl
o escada_Plane.004
v 1.504267 1.106555 -0.560931
v 1.816487 1.106555 -0.560931
v -1.535634 0.000000 -1.655905
v 1.535634 0.000000 -1.655905
v 1.816487 0.000007 -0.560931
v 1.504267 0.000007 -0.560931
v -1.746511 0.000007 -0.560931
v -1.434292 0.000007 -0.560931
v -1.434292 1.106555 -0.560931
v -1.746511 1.106555 -0.560931
v -1.746511 1.106555 0.601098
v -1.434292 1.106555 0.601098
v -1.746511 0.295170 -1.831841
v -1.434292 0.295170 -1.831841
v 1.535634 0.237868 -1.322571
v 1.535634 0.237868 -1.655905
v -1.535634 0.237868 -1.655905
v -1.535634 0.237868 -1.322571
v 1.504267 0.000007 0.601098
v 1.816487 0.000007 0.601098
v 1.504267 0.000007 -1.831841
v -1.434292 0.000007 -1.831841
v -1.746511 0.000007 -1.831841
v -1.535634 0.455280 -1.322571
v -1.535634 0.455280 -0.989238
v 1.816487 0.000007 -1.831841
v 1.816487 0.295170 -1.831841
v 1.504267 0.295170 -1.831841
v 1.535634 0.455280 -0.989238
v 1.535634 0.455280 -1.322571
v 1.816487 1.106555 0.601098
v -1.434292 0.000007 0.601098
v -1.746511 0.000007 0.601098
v -1.535634 0.658666 -0.655905
v 1.504267 1.106555 0.601098
v 1.535634 0.658666 -0.655905
v 1.535634 0.658666 -0.989238
v -1.535634 0.658666 -0.989238
v -1.535634 0.848025 -0.322571
v -1.535634 0.848025 0.344095
v 1.535634 0.848025 0.344095
v -1.535634 0.848025 -0.655905
v 1.535634 0.848025 -0.322571
v 1.535634 0.848025 -0.655905
vt 0.5213 0.0271
vt 0.7494 0.0271
vt 0.7494 0.3989
vt 0.5213 0.1263
vt 0.5189 0.8425
vt 0.4614 0.8425
vt 0.4614 0.5139
vt 0.5189 0.5139
vt 0.2482 0.0185
vt 0.4772 0.0185
vt 0.4772 0.1613
vt 0.2482 0.5538
vt 0.0236 0.4920
vt 0.0236 0.4161
vt 0.4572 0.4161
vt 0.4572 0.4920
vt 0.2516 0.0271
vt 0.4797 0.0271
vt 0.4797 0.1263
vt 0.2516 0.3989
vt 1.0857 0.3011
vt -0.5570 0.3011
vt -0.5570 0.1345
vt 1.0857 0.1345
vt -0.2106 0.0032
vt 1.9050 0.0032
vt 1.9050 0.1118
vt -0.2106 0.1118
vt 0.9867 0.0271
vt 0.9867 0.3989
vt -0.5570 0.0156
vt 1.0857 0.0156
vt 1.6286 0.0001
vt -0.6286 0.0001
vt -0.6286 0.1017
vt 1.6286 0.1017
vt 1.9050 0.2785
vt -0.2106 0.2785
vt -0.7776 0.0001
vt 1.7776 0.0001
vt 1.7776 0.0947
vt -0.7776 0.0947
vt -0.6286 0.2684
vt 1.6286 0.2684
vt 0.4614 0.1234
vt 0.5189 0.1234
vt 0.0101 0.0185
vt 0.0101 0.5538
vt 0.9725 0.4161
vt 0.9725 0.4920
vt 1.7776 0.5947
vt -0.7776 0.5947
vt -0.7776 0.2614
vt 1.7776 0.2614
vt 0.5189 0.0185
vt 0.5189 0.1613
vt 0.7479 0.0185
vt 0.7479 0.5538
vt 0.9860 0.0185
vt 0.9860 0.5538
vt 0.0143 0.0271
vt 0.0143 0.3989
vn -0.7071 0.0000 -0.7071
vn -1.0000 0.0000 0.0000
vn -0.6491 0.7302 -0.2132
vn -0.6132 0.3796 -0.6927
vn -0.7071 0.7071 0.0000
vn 0.7071 0.7071 0.0000
vn 0.6491 0.7302 -0.2132
vn 1.0000 0.0000 0.0000
vn 0.7071 0.0000 -0.7071
vn 0.6132 0.3796 -0.6927
vn 0.0000 0.7071 -0.7071
vn 0.0000 0.0000 -1.0000
vn 0.0000 1.0000 0.0000
usemtl None
s 1
f 23/1/1 7/2/2 10/3/3 13/4/4
f 11/5/5 12/6/6 9/7/7 10/8/3
f 5/9/8 26/10/9 27/11/10 2/12/7
f 35/13/5 31/14/6 2/15/7 1/16/3
f 8/17/8 22/18/9 14/19/10 9/20/7
f 18/21/11 15/22/11 16/23/11 17/24/11
f 15/25/11 18/26/11 24/27/11 30/28/11
f 7/2/2 33/29/2 11/30/5 10/3/3
f 4/31/12 3/32/12 17/24/11 16/23/11
f 29/33/11 25/34/11 38/35/11 37/36/11
f 25/37/11 29/38/11 30/28/11 24/27/11
f 22/18/9 23/1/1 13/4/4 14/19/10
f 36/39/11 34/40/11 42/41/11 44/42/11
f 34/43/11 36/44/11 37/36/11 38/35/11
f 10/8/3 9/7/7 14/45/10 13/46/4
f 20/47/8 5/9/8 2/12/7 31/48/6
f 1/16/3 2/15/7 27/49/10 28/50/4
f 40/51/13 41/52/13 43/53/13 39/54/13
f 39/54/13 43/53/13 44/42/11 42/41/11
f 26/10/9 21/55/1 28/56/4 27/11/10
f 21/55/1 6/57/2 1/58/3 28/56/4
f 6/57/2 19/59/2 35/60/5 1/58/3
f 32/61/8 8/17/8 9/20/7 12/62/6
