# Blender v2.78 (sub 0) OBJ File: ''
# www.blender.org
mtllib Buildings02_door.mtl
o Plane.004
v -0.632647 0.827592 -0.196266
v -0.632647 -1.431302 -0.196266
v -0.754108 -1.431302 -0.196266
v -0.754108 0.971777 -0.196266
v 0.729923 0.971777 -0.196266
v 0.729922 -1.431302 -0.196266
v 0.606252 -1.431302 -0.196266
v 0.606253 0.827592 -0.196266
v 0.606253 0.827592 -0.018467
v 0.606252 -1.431303 -0.018467
v -0.632647 -1.431303 -0.018467
v -0.632647 0.827592 -0.018467
v -0.632647 0.827592 0.138802
v -0.754108 0.971777 0.138802
v -0.754108 -1.431302 0.138802
v -0.632647 -1.431302 0.138802
v 0.729923 0.971777 0.138802
v 0.606253 0.827592 0.138802
v 0.606252 -1.431302 0.138802
v 0.729922 -1.431302 0.138802
v 0.606253 0.827592 0.069977
v -0.632647 0.827592 0.069977
v -0.632647 -1.431303 0.069977
v 0.606252 -1.431303 0.069977
v 0.729923 0.971777 -0.196266
v 0.729923 0.971777 0.138802
v -0.754108 0.971777 0.138802
v -0.754108 0.971777 -0.196266
v 0.729923 1.472409 -0.196266
v -0.754107 1.472409 -0.196266
v -0.754107 1.472409 0.138802
v 0.729923 1.472409 0.138802
v -0.678227 1.396919 0.138802
v 0.654042 1.396918 0.138802
v 0.645598 1.041626 -0.196266
v 0.645598 1.402560 -0.196266
v -0.678227 1.047268 0.138802
v -0.678227 1.047268 0.022028
v -0.678227 1.396919 0.022028
v 0.654042 1.047268 0.138802
v 0.654042 1.396918 0.022028
v 0.654042 1.047268 0.022028
v 0.645598 1.041626 -0.094117
v 0.645598 1.402560 -0.094117
v -0.669783 1.402560 -0.196266
v -0.669783 1.041626 -0.196266
v -0.669783 1.041626 -0.094117
v -0.669783 1.402560 -0.094117
v 0.482679 -0.443910 -0.029087
v 0.482679 -0.443910 -0.054647
v 0.450781 -0.443910 -0.054647
v 0.450781 -0.443910 -0.029087
v 0.529584 -0.532783 -0.036230
v 0.529584 -0.532783 -0.008467
v 0.403877 -0.532783 -0.008467
v 0.403877 -0.532783 -0.036230
v 0.529584 -0.391012 -0.036230
v 0.529584 -0.391012 -0.008467
v 0.403877 -0.391012 -0.036230
v 0.403877 -0.391012 -0.008467
v 0.428347 -0.418609 -0.054647
v 0.428347 -0.505186 -0.054647
v 0.450781 -0.479884 -0.054647
v 0.450781 -0.479884 -0.029087
v 0.482679 -0.479884 -0.054647
v 0.482679 -0.479884 -0.029087
v 0.428347 -0.505186 -0.081564
v 0.505114 -0.505186 -0.081564
v 0.505114 -0.505186 -0.054647
v 0.505114 -0.418609 -0.054647
v 0.505114 -0.418609 -0.081564
v 0.490606 -0.434970 -0.091415
v 0.442854 -0.434970 -0.091415
v 0.428347 -0.418609 -0.081564
v 0.469836 -0.454232 -0.091415
v 0.463624 -0.454232 -0.091415
v 0.442854 -0.488824 -0.091415
v 0.490606 -0.488824 -0.091415
v 0.463624 -0.469562 -0.091415
v 0.463624 -0.469562 -0.076147
v 0.469836 -0.469562 -0.076147
v 0.469836 -0.469562 -0.091415
v 0.469836 -0.454232 -0.076147
v 0.463624 -0.454232 -0.076147
v 0.450781 -0.443910 0.075694
v 0.450781 -0.443910 0.101255
v 0.482679 -0.443910 0.101255
v 0.482679 -0.443910 0.075694
v 0.403877 -0.532783 0.082838
v 0.403877 -0.532783 0.055074
v 0.529584 -0.532783 0.055074
v 0.529584 -0.532783 0.082838
v 0.403877 -0.391012 0.082838
v 0.403877 -0.391012 0.055074
v 0.529584 -0.391012 0.082838
v 0.529584 -0.391012 0.055074
v 0.505114 -0.418609 0.101255
v 0.505114 -0.505186 0.101255
v 0.482679 -0.479884 0.101255
v 0.482679 -0.479884 0.075694
v 0.450781 -0.479884 0.101255
v 0.450781 -0.479884 0.075694
v 0.505114 -0.505186 0.128172
v 0.428347 -0.505186 0.128172
v 0.428347 -0.505186 0.101255
v 0.428347 -0.418609 0.101255
v 0.428347 -0.418609 0.128172
v 0.442854 -0.434970 0.138022
v 0.490607 -0.434970 0.138022
v 0.505114 -0.418609 0.128172
v 0.463625 -0.454232 0.138022
v 0.469836 -0.454232 0.138022
v 0.490607 -0.488824 0.138022
v 0.442854 -0.488824 0.138022
v 0.469836 -0.469562 0.138022
v 0.469836 -0.469562 0.122754
v 0.463625 -0.469562 0.122754
v 0.463625 -0.469562 0.138022
v 0.463625 -0.454232 0.122754
v 0.469836 -0.454232 0.122754
vt 0.0001 0.2712
vt 0.9999 0.2712
vt 0.9999 0.5336
vt 0.0001 0.5336
vt 0.9872 0.2710
vt 0.0001 0.2710
vt 0.0001 0.0001
vt 0.9872 0.0001
vt 0.9110 0.0091
vt 0.0150 0.0540
vt 0.0000 0.0839
vt 1.0000 0.0476
vt 0.9703 0.0000
vt 0.0000 0.0532
vt 0.0175 0.0812
vt 0.9040 0.0480
vt 0.9213 0.0995
vt 0.8223 0.0301
vt 0.1136 0.0000
vt 0.0564 0.0294
vt 0.2746 0.4998
vt 0.2746 0.0002
vt 0.5486 0.0002
vt 0.5486 0.4998
vt 0.9045 0.0476
vt 0.9699 0.0000
vt 0.0213 0.0598
vt 0.0269 0.0842
vt 1.0000 0.0480
vt 0.9117 0.0103
vt 0.0268 0.0509
vt 0.0233 0.0760
vt 1.0000 0.0301
vt 0.0000 0.0109
vt 0.0885 0.0612
vt 0.8433 0.0803
vt 0.2742 0.4998
vt 0.0002 0.4998
vt 0.0002 0.0002
vt 0.2742 0.0002
vt 0.3545 0.5002
vt 0.3545 0.9998
vt 0.3288 0.9998
vt 0.3288 0.5002
vt 0.2742 0.7643
vt 0.0002 0.7643
vt 0.0002 0.7386
vt 0.2742 0.7386
vt 0.0002 0.7126
vt 0.2742 0.7126
vt 0.2742 0.7382
vt 0.0002 0.7382
vt 0.9547 0.4998
vt 0.9547 0.0002
vt 0.9803 0.0002
vt 0.9803 0.4998
vt 0.0002 0.5321
vt 0.0002 0.6062
vt 0.3284 0.6062
vt 0.3284 0.5321
vt 0.9999 0.3554
vt 0.0001 0.3554
vt 0.0001 0.1296
vt 0.9999 0.1296
vt 0.0001 0.7302
vt 0.0001 0.2611
vt 0.7009 0.2611
vt 0.7009 0.7302
vt 0.0512 0.0787
vt 0.9488 0.0787
vt 0.0001 0.7389
vt 0.0001 0.2698
vt 0.7009 0.2698
vt 0.7009 0.7389
vt 0.0979 0.1431
vt 0.6032 0.1431
vt 0.5953 0.1636
vt 0.1058 0.1636
vt 0.1058 0.0001
vt 0.5953 0.0001
vt 0.0000 0.0000
vt 1.0000 0.0000
vt 0.9488 0.0509
vt 0.0512 0.0509
vt 0.5953 0.8364
vt 0.1058 0.8364
vt 0.0512 0.0001
vt 0.9488 0.0001
vt 0.5953 0.9999
vt 0.1058 0.9999
vt 0.9488 0.1296
vt 0.0512 0.1296
vt 0.0979 0.0001
vt 0.6032 0.0001
vt 0.6032 0.8569
vt 0.0979 0.8569
vt 0.9431 0.4024
vt 0.0569 0.4024
vt 0.9999 0.1159
vt 0.0001 0.1159
vt 0.0569 0.0689
vt 0.9431 0.0689
vt 0.0569 0.0001
vt 0.9431 0.0001
vt 0.6032 0.9999
vt 0.0979 0.9999
vt 0.9431 0.4712
vt 0.0569 0.4712
vt 0.9999 0.5304
vt 0.9080 0.5304
vt 0.9080 0.4158
vt 0.9999 0.4158
vt 0.4503 0.1575
vt 0.5476 0.0492
vt 0.0001 0.0001
vt 0.1155 0.1063
vt 0.4323 0.5305
vt 0.5476 0.6366
vt 0.0975 0.4793
vt 0.0001 0.5875
vt 0.5647 0.0920
vt 0.6556 0.1726
vt 0.3444 0.1726
vt 0.4353 0.0920
vt 0.5647 0.0001
vt 0.4353 0.0001
vt 0.0001 0.4158
vt 0.0920 0.4158
vt 0.0920 0.5304
vt 0.0001 0.5304
vt 0.4353 0.9461
vt 0.4353 0.8542
vt 0.5647 0.8542
vt 0.5647 0.9461
vt 0.1829 0.3351
vt 0.2797 0.3351
vt 0.2797 0.6111
vt 0.1829 0.6111
vt 0.3444 0.7736
vt 0.6556 0.7736
vt 0.8171 0.6111
vt 0.8171 0.3351
vt 0.7203 0.6111
vt 0.6517 0.5589
vt 0.6517 0.3873
vt 0.7203 0.3351
vt 0.3444 0.6768
vt 0.6556 0.6768
vt 0.6556 0.2694
vt 0.3444 0.2694
vt 0.5824 0.4843
vt 0.5824 0.4619
vt 0.5968 0.3324
vt 0.4032 0.3324
vt 0.3483 0.3873
vt 0.3483 0.5589
vt 0.4032 0.6138
vt 0.5968 0.6138
vt 0.4176 0.4619
vt 0.4725 0.4619
vt 0.4725 0.4843
vt 0.4176 0.4843
vt 0.5276 0.4071
vt 0.4725 0.4071
vt 0.4725 0.5392
vt 0.5276 0.5392
vt 0.5276 0.4843
vt 0.5276 0.4619
vt 0.4158 0.9999
vt 0.4158 0.9080
vt 0.5304 0.9080
vt 0.5304 0.9999
vt 0.1530 0.2473
vt 0.0001 0.0772
vt 0.8601 0.0001
vt 0.6789 0.1668
vt 0.1813 0.8332
vt 0.0001 0.9999
vt 0.7072 0.7527
vt 0.8601 0.9228
vt 0.8542 0.5647
vt 0.7736 0.6556
vt 0.7736 0.3444
vt 0.8542 0.4353
vt 0.9461 0.5647
vt 0.9461 0.4353
vt 0.5304 0.0001
vt 0.5304 0.0920
vt 0.4158 0.0920
vt 0.4158 0.0001
vt 0.0001 0.4353
vt 0.0920 0.4353
vt 0.0920 0.5647
vt 0.0001 0.5647
vt 0.6111 0.1829
vt 0.6111 0.2797
vt 0.3351 0.2797
vt 0.3351 0.1829
vt 0.1726 0.3444
vt 0.1726 0.6556
vt 0.3351 0.8171
vt 0.6111 0.8171
vt 0.3351 0.7203
vt 0.3873 0.6517
vt 0.5589 0.6517
vt 0.6111 0.7203
vt 0.2694 0.3444
vt 0.2694 0.6556
vt 0.6768 0.6556
vt 0.6768 0.3444
vt 0.4619 0.5824
vt 0.4843 0.5824
vt 0.6138 0.5968
vt 0.6138 0.4032
vt 0.5589 0.3483
vt 0.3873 0.3483
vt 0.3324 0.4032
vt 0.3324 0.5968
vt 0.4843 0.4176
vt 0.4843 0.4725
vt 0.4619 0.4725
vt 0.4619 0.4176
vt 0.5392 0.5276
vt 0.5392 0.4725
vt 0.4071 0.4725
vt 0.4071 0.5276
vt 0.4619 0.5276
vt 0.4843 0.5276
vn -0.0000 -0.0000 1.0000
vn 0.0000 0.0000 -1.0000
vn 1.0000 -0.0000 -0.0000
vn -1.0000 0.0000 0.0000
vn 0.0000 1.0000 0.0000
vn 0.0000 -1.0000 0.0000
vn 0.7071 0.7071 0.0000
vn 0.3015 0.3015 0.9045
vn -0.3015 0.3015 0.9045
vn -0.7071 0.7071 0.0000
vn 0.5774 -0.5774 -0.5774
vn 0.7071 -0.7071 0.0000
vn -0.7071 -0.7071 0.0000
vn -0.5774 -0.5774 -0.5774
vn 0.5774 0.5774 -0.5774
vn -0.5774 0.5774 -0.5774
vn -0.5774 0.5774 0.5774
vn -0.5774 -0.5774 0.5774
vn -0.3015 -0.3015 0.9045
vn 0.3015 -0.3015 0.9045
vn -0.6279 -0.6324 -0.4536
vn 0.6279 -0.6324 -0.4536
vn 0.5774 -0.5774 0.5774
vn 0.5774 0.5774 0.5774
vn 0.6279 0.6324 -0.4536
vn 0.2302 0.2021 -0.9519
vn -0.2302 0.2021 -0.9519
vn -0.6279 0.6324 -0.4536
vn -0.3015 -0.3015 -0.9045
vn 0.3015 -0.3015 -0.9045
vn -0.2302 -0.2021 -0.9519
vn 0.2302 -0.2021 -0.9519
vn 0.3015 0.3015 -0.9045
vn -0.3015 0.3015 -0.9045
vn 0.6279 -0.6324 0.4536
vn -0.6279 -0.6324 0.4536
vn -0.6279 0.6324 0.4536
vn -0.2302 0.2021 0.9519
vn 0.2302 0.2021 0.9519
vn 0.6279 0.6324 0.4536
vn 0.2302 -0.2021 0.9519
vn -0.2302 -0.2021 0.9519
usemtl vidro
s off
f 38/1/1 42/2/1 41/3/1 39/4/1
f 43/5/2 47/6/2 48/7/2 44/8/2
usemtl batente
f 1/9/2 2/10/2 3/11/2 4/12/2
f 5/13/2 6/14/2 7/15/2 8/16/2
f 5/17/2 8/18/2 1/19/2 4/20/2
f 9/21/2 10/22/2 11/23/2 12/24/2
f 13/25/1 14/26/1 15/27/1 16/28/1
f 17/29/1 18/30/1 19/31/1 20/32/1
f 17/33/1 14/34/1 13/35/1 18/36/1
f 21/37/1 22/38/1 23/39/1 24/40/1
f 6/14/3 5/13/3 17/29/3 20/32/3
f 4/12/4 3/11/4 15/27/4 14/26/4
f 5/17/5 4/20/5 14/34/5 17/33/5
f 8/16/4 7/15/4 19/31/4 18/30/4
f 1/19/6 8/18/6 18/36/6 13/35/6
f 2/10/3 1/9/3 13/25/3 16/28/3
f 10/41/3 9/42/3 21/43/3 24/44/3
f 11/45/6 10/46/6 24/47/6 23/48/6
f 9/49/5 12/50/5 22/51/5 21/52/5
f 12/53/4 11/54/4 23/55/4 22/56/4
f 25/57/6 26/58/6 27/59/6 28/60/6
f 29/61/5 30/62/5 31/63/5 32/64/5
f 26/65/3 25/66/3 29/67/3 32/68/3
f 32/64/1 31/63/1 33/69/1 34/70/1
f 28/71/4 27/72/4 31/73/4 30/74/4
f 29/67/2 25/66/2 35/75/2 36/76/2
f 33/77/3 37/78/3 38/79/3 39/80/3
f 27/81/1 26/82/1 40/83/1 37/84/1
f 26/65/1 32/68/1 34/85/1 40/86/1
f 31/73/1 27/72/1 37/78/1 33/77/1
f 34/70/6 33/69/6 39/87/6 41/88/6
f 40/86/4 34/85/4 41/89/4 42/90/4
f 37/84/5 40/83/5 42/91/5 38/92/5
f 36/76/4 35/75/4 43/93/4 44/94/4
f 28/71/2 30/74/2 45/95/2 46/96/2
f 30/62/2 29/61/2 36/97/2 45/98/2
f 25/99/2 28/100/2 46/101/2 35/102/2
f 35/102/5 46/101/5 47/103/5 43/104/5
f 46/96/3 45/95/3 48/105/3 47/106/3
f 45/98/6 36/97/6 44/107/6 48/108/6
usemtl metal
s 1
f 49/109/7 50/110/8 51/111/9 52/112/10
f 53/113/11 54/114/12 55/115/13 56/116/14
f 57/117/15 58/118/7 54/114/12 53/113/11
f 59/119/16 60/120/10 58/118/7 57/117/15
f 56/116/14 55/115/13 60/120/10 59/119/16
f 57/117/15 53/113/11 56/116/14 59/119/16
f 51/121/9 61/122/17 62/123/18 63/124/19
f 52/125/10 51/121/9 63/124/19 64/126/13
f 64/127/13 63/128/19 65/129/20 66/130/12
f 66/131/12 65/132/20 50/133/8 49/134/7
f 62/135/18 67/136/21 68/137/22 69/138/23
f 63/128/19 62/135/18 69/138/23 65/129/20
f 65/132/20 69/139/23 70/140/24 50/133/8
f 50/110/8 70/141/24 61/142/17 51/111/9
f 71/143/25 72/144/26 73/145/27 74/146/28
f 69/139/23 68/147/22 71/148/25 70/140/24
f 70/141/24 71/143/25 74/146/28 61/142/17
f 61/122/17 74/149/28 67/150/21 62/123/18
f 72/144/26 75/151/29 76/152/30 73/145/27
f 74/149/28 73/153/27 77/154/31 67/150/21
f 67/136/21 77/155/31 78/156/32 68/137/22
f 68/147/22 78/157/32 72/158/26 71/148/25
f 79/159/33 80/160/15 81/161/16 82/162/34
f 73/153/27 76/163/30 79/164/33 77/154/31
f 77/155/31 79/159/33 82/162/34 78/156/32
f 78/157/32 82/165/34 75/166/29 72/158/26
f 83/167/14 81/161/16 80/160/15 84/168/11
f 82/165/34 81/161/16 83/167/14 75/166/29
f 75/151/29 83/167/14 84/168/11 76/152/30
f 76/163/30 84/168/11 80/160/15 79/164/33
f 85/169/10 86/170/34 87/171/33 88/172/7
f 89/173/18 90/174/13 91/175/12 92/176/23
f 93/177/17 94/178/10 90/174/13 89/173/18
f 95/179/24 96/180/7 94/178/10 93/177/17
f 92/176/23 91/175/12 96/180/7 95/179/24
f 93/177/17 89/173/18 92/176/23 95/179/24
f 87/181/33 97/182/15 98/183/11 99/184/30
f 88/185/7 87/181/33 99/184/30 100/186/12
f 100/187/12 99/188/30 101/189/29 102/190/13
f 102/191/13 101/192/29 86/193/34 85/194/10
f 98/195/11 103/196/35 104/197/36 105/198/14
f 99/188/30 98/195/11 105/198/14 101/189/29
f 101/192/29 105/199/14 106/200/16 86/193/34
f 86/170/34 106/201/16 97/202/15 87/171/33
f 107/203/37 108/204/38 109/205/39 110/206/40
f 105/199/14 104/207/36 107/208/37 106/200/16
f 106/201/16 107/203/37 110/206/40 97/202/15
f 97/182/15 110/209/40 103/210/35 98/183/11
f 108/204/38 111/211/20 112/212/19 109/205/39
f 110/209/40 109/213/39 113/214/41 103/210/35
f 103/196/35 113/215/41 114/216/42 104/197/36
f 104/207/36 114/217/42 108/218/38 107/208/37
f 115/219/9 116/220/17 117/221/24 118/222/8
f 109/213/39 112/223/19 115/224/9 113/214/41
f 113/215/41 115/219/9 118/222/8 114/216/42
f 114/217/42 118/225/8 111/226/20 108/218/38
f 119/227/23 117/221/24 116/220/17 120/228/18
f 118/225/8 117/221/24 119/227/23 111/226/20
f 111/211/20 119/227/23 120/228/18 112/212/19
f 112/223/19 120/228/18 116/220/17 115/224/9
