# Blender v2.78 (sub 0) OBJ File: 'predio02.blend'
# www.blender.org
mtllib Buildings02_gorundfloor.mtl
o Cube_Cube.009
v 4.936006 -0.035704 15.019281
v 4.936006 4.055751 15.019281
v 4.936006 -0.035704 14.914939
v 4.936006 4.055751 14.914939
v 5.006090 -0.035704 15.019281
v 5.006090 4.055751 15.019281
v 5.006090 -0.035704 14.914939
v 5.006090 4.055751 14.914939
v -4.936006 -0.035704 15.019281
v -4.936006 4.055751 15.019281
v -4.936006 -0.035704 14.914939
v -4.936006 4.055751 14.914939
v -5.006090 -0.035704 15.019281
v -5.006090 4.055751 15.019281
v -5.006090 -0.035704 14.914939
v -5.006090 4.055751 14.914939
v 4.936006 -0.035704 -15.019281
v 4.936006 4.055751 -15.019281
v 4.936006 -0.035704 -14.914939
v 4.936006 4.055751 -14.914939
v 5.006090 -0.035704 -15.019281
v 5.006090 4.055751 -15.019281
v 5.006090 -0.035704 -14.914939
v 5.006090 4.055751 -14.914939
v -4.936006 -0.035704 -15.019281
v -4.936006 4.055751 -15.019281
v -4.936006 -0.035704 -14.914939
v -4.936006 4.055751 -14.914939
v -5.006090 -0.035704 -15.019281
v -5.006090 4.055751 -15.019281
v -5.006090 -0.035704 -14.914939
v -5.006090 4.055751 -14.914939
vt 0.5139 0.8826
vt 0.5139 0.0732
vt 0.5347 0.0732
vt 0.5347 0.8826
vt 0.4653 0.8827
vt 0.4653 0.0732
vt 0.4793 0.0732
vt 0.4793 0.8826
vt 0.5000 0.0732
vt 0.5000 0.8826
vt 0.5139 0.8826
vt 0.5347 0.8826
vt 0.5347 0.0732
vt 0.5139 0.0732
vt 0.4653 0.8827
vt 0.4793 0.8826
vt 0.4793 0.0732
vt 0.4653 0.0732
vt 0.5000 0.8826
vt 0.5000 0.0732
vt 0.5139 0.8826
vt 0.5347 0.8826
vt 0.5347 0.0732
vt 0.5139 0.0732
vt 0.4653 0.8827
vt 0.4793 0.8826
vt 0.4793 0.0732
vt 0.4653 0.0732
vt 0.5000 0.8826
vt 0.5000 0.0732
vt 0.5139 0.8826
vt 0.5139 0.0732
vt 0.5347 0.0732
vt 0.5347 0.8826
vt 0.4653 0.8827
vt 0.4653 0.0732
vt 0.4793 0.0732
vt 0.4793 0.8826
vt 0.5000 0.0732
vt 0.5000 0.8826
vn -1.0000 0.0000 0.0000
vn 0.0000 0.0000 -1.0000
vn 1.0000 0.0000 0.0000
vn 0.0000 0.0000 1.0000
usemtl None
s off
f 1/1/1 2/2/1 4/3/1 3/4/1
f 3/5/2 4/6/2 8/7/2 7/8/2
f 7/8/3 8/7/3 6/9/3 5/10/3
f 5/10/4 6/9/4 2/2/4 1/1/4
f 9/11/3 11/12/3 12/13/3 10/14/3
f 11/15/2 15/16/2 16/17/2 12/18/2
f 15/16/1 13/19/1 14/20/1 16/17/1
f 13/19/4 9/11/4 10/14/4 14/20/4
f 17/21/1 19/22/1 20/23/1 18/24/1
f 19/25/4 23/26/4 24/27/4 20/28/4
f 23/26/3 21/29/3 22/30/3 24/27/3
f 21/29/2 17/21/2 18/24/2 22/30/2
f 25/31/3 26/32/3 28/33/3 27/34/3
f 27/35/4 28/36/4 32/37/4 31/38/4
f 31/38/1 32/37/1 30/39/1 29/40/1
f 29/40/2 30/39/2 26/32/2 25/31/2
o Cube.002_Cube.004
v -5.000000 3.772791 15.983994
v -5.000000 4.070261 15.983994
v -5.000000 3.772791 14.983994
v -5.000000 4.070261 14.983994
v 5.000000 3.772791 15.983994
v 5.000000 4.070261 15.983994
v 5.000000 3.772791 14.983994
v 5.000000 4.070261 14.983994
v -5.000000 3.772791 -15.983994
v -5.000000 4.070261 -15.983994
v -5.000000 3.772791 -14.983994
v -5.000000 4.070261 -14.983994
v 5.000000 3.772791 -15.983994
v 5.000000 4.070261 -15.983994
v 5.000000 3.772791 -14.983994
v 5.000000 4.070261 -14.983994
vt -2.1988 0.3390
vt -2.1617 0.6633
vt -4.0902 0.6819
vt -4.1273 0.3575
vt 5.2933 0.3181
vt 5.3304 0.6425
vt 3.0384 0.6610
vt 3.0013 0.3367
vt -2.2359 0.0146
vt 2.9642 0.0123
vt 3.0755 0.9854
vt -2.1246 0.9877
vt -2.1988 0.3390
vt -4.1273 0.3575
vt -4.0902 0.6819
vt -2.1617 0.6633
vt 5.2933 0.3181
vt 3.0013 0.3367
vt 3.0384 0.6610
vt 5.3304 0.6425
vt -2.2359 0.0146
vt 2.9642 0.0123
vt 3.0755 0.9854
vt -2.1246 0.9877
vn -1.0000 0.0000 0.0000
vn 1.0000 0.0000 0.0000
vn 0.0000 0.0000 1.0000
vn 0.0000 -1.0000 0.0000
vn 0.0000 1.0000 0.0000
vn 0.0000 0.0000 -1.0000
usemtl material
s off
f 33/41/5 34/42/5 36/43/5 35/44/5
f 39/45/6 40/46/6 38/47/6 37/48/6
f 37/48/7 38/47/7 34/42/7 33/41/7
f 35/49/8 39/50/8 37/48/8 33/41/8
f 40/51/9 36/52/9 34/42/9 38/47/9
f 41/53/5 43/54/5 44/55/5 42/56/5
f 47/57/6 45/58/6 46/59/6 48/60/6
f 45/58/10 41/53/10 42/56/10 46/59/10
f 43/61/8 41/53/8 45/58/8 47/62/8
f 48/63/9 46/59/9 42/56/9 44/64/9
o terrio_Cube
v -5.000000 0.000000 15.000000
v -5.000000 4.000000 15.000000
v -5.000000 0.000000 -15.000000
v -5.000000 4.000000 -15.000000
v 5.000000 0.000000 15.000000
v 5.000000 4.000000 15.000000
v 5.000000 0.000000 -15.000000
v 5.000000 4.000000 -15.000000
v 4.999998 0.049988 -14.999992
v 4.999998 0.049988 14.999993
v -4.999998 0.049988 14.999990
v -4.999996 0.049988 -14.999999
v 5.000000 4.049988 -14.999986
v 4.999994 4.049988 15.000002
v -5.000000 4.049988 14.999988
v -4.999997 4.049988 -14.999993
v -2.514969 0.049988 14.999990
v -2.514971 4.049988 14.999991
v 5.000000 3.018738 -14.999987
v 4.999995 3.018738 14.999999
v -4.999999 3.018738 14.999989
v -4.999997 3.018738 -14.999995
v -2.514970 3.018738 14.999991
v -4.470981 0.049988 14.999990
v -4.470982 4.049988 14.999989
v -4.470982 3.018738 14.999990
v -2.959517 0.049988 14.999990
v -2.959519 4.049988 14.999990
v -2.959518 3.018738 14.999991
v -1.613173 0.049988 14.999990
v -1.613175 4.049988 14.999992
v -1.613175 3.018738 14.999992
v 4.038082 0.049988 14.999992
v 4.038079 4.049988 15.000000
v 4.038080 3.018738 14.999997
v -1.535543 0.049988 -14.999997
v -1.535543 4.049988 -14.999990
v -1.535543 3.018738 -14.999992
v -3.115820 0.049988 -14.999997
v -3.115820 4.049988 -14.999991
v -3.115820 3.018738 -14.999993
v -4.470981 0.049988 14.699169
v -4.470982 3.018738 14.699168
v -2.959517 0.049988 14.699169
v -2.959518 3.018738 14.699170
v -1.613173 0.049988 14.699169
v -1.613175 3.018738 14.699171
v 4.038082 0.049988 14.699171
v 4.038080 3.018738 14.699176
v -1.680675 0.025461 15.374626
v 4.084035 0.025461 15.374626
v -1.680675 0.025461 14.695394
v 4.084035 0.025461 14.695394
v -1.680675 0.181177 15.374626
v 4.084035 0.181177 15.374626
v -1.680675 0.181177 14.695394
v 4.084035 0.181177 14.695394
v -1.680675 0.116295 15.374626
v -1.680675 0.116295 14.695394
v 4.084035 0.116295 14.695394
v 4.084035 0.116295 15.374626
v -4.614185 0.025461 15.374626
v -2.826578 0.025461 15.374626
v -4.614185 0.025461 14.695394
v -2.826578 0.025461 14.695394
v -4.614185 0.181177 15.374626
v -2.826578 0.181177 15.374626
v -4.614185 0.181177 14.695394
v -2.826578 0.181177 14.695394
v -4.614185 0.116295 15.374626
v -4.614185 0.116295 14.695394
v -2.826578 0.116295 14.695394
v -2.826578 0.116295 15.374626
v -1.457743 0.025461 -15.178024
v -3.245350 0.025461 -15.178024
v -1.457743 0.025461 -14.580563
v -3.245350 0.025461 -14.580563
v -1.457743 0.181177 -15.178024
v -3.245350 0.181177 -15.178024
v -1.457743 0.181177 -14.580563
v -3.245350 0.181177 -14.580563
v -1.457743 0.116295 -15.178024
v -1.457743 0.116295 -14.580563
v -3.245350 0.116295 -14.580563
v -3.245350 0.116295 -15.178024
v -1.535543 0.049988 -14.664098
v -1.535543 3.018738 -14.664093
v -3.115820 0.049988 -14.664098
v -3.115820 3.018738 -14.664094
vt -0.1230 0.2579
vt -0.1230 0.9999
vt -0.4998 0.9999
vt -0.4998 0.2579
vt -0.1230 0.0001
vt -0.4998 0.0001
vt 1.4998 0.2579
vt 1.4998 0.9999
vt 0.1930 0.9999
vt 0.1930 0.2579
vt 1.4998 0.0001
vt 0.1930 0.0001
vt 0.0273 0.0000
vt 0.0273 0.4452
vt -0.0207 0.4452
vt -0.0207 0.0000
vt 0.0288 0.5548
vt -0.0192 0.5548
vt 0.0288 1.0000
vt -0.0192 1.0000
vt 2.7844 0.4153
vt 2.9180 0.4153
vt 2.9180 0.5955
vt 2.7844 0.5955
vt -1.7906 0.4153
vt -1.7906 0.5955
vt -1.9242 0.4153
vt -1.9242 0.5955
vt 1.2588 0.4153
vt 1.3033 0.4153
vt 1.3033 0.5955
vt 1.2588 0.5955
vt -0.2650 0.4153
vt -0.2650 0.5955
vt -0.3095 0.4153
vt -0.3095 0.5955
vt 1.2588 0.4153
vt 1.3033 0.4153
vt 1.3033 0.5955
vt 1.2588 0.5955
vt -0.2650 0.4153
vt -0.2650 0.5955
vt -0.3095 0.4153
vt -0.3095 0.5955
vt 2.9995 0.0001
vt 2.9995 0.9999
vt -1.9995 0.9999
vt -1.9995 0.0001
vt -1.9995 0.9999
vt -1.9995 0.0001
vt 2.9995 0.0001
vt 2.9995 0.9999
vt -0.3940 0.7421
vt -0.3940 0.9999
vt -0.4998 0.9999
vt -0.4998 0.7421
vt 0.1774 0.7421
vt 0.1774 0.9999
vt -0.0029 0.9999
vt -0.0029 0.7421
vt 0.1774 0.0001
vt -0.0029 0.0001
vt -0.3940 0.0001
vt -0.4998 0.0001
vt -0.0918 0.7421
vt -0.0918 0.9999
vt -0.0918 0.0001
vt 1.3075 0.7421
vt 1.3075 0.9999
vt 1.4998 0.7421
vt 1.4998 0.9999
vt 1.4998 0.0001
vt 1.3075 0.0001
vt 0.0369 0.0000
vt 0.0309 0.3351
vt -0.0306 0.3351
vt -0.0245 0.0000
vt 0.0370 0.6648
vt 0.0309 1.0000
vt -0.0305 1.0000
vt -0.0244 0.6648
vt 0.0438 0.4419
vt 0.0472 0.5581
vt -0.0357 0.5581
vt -0.0391 0.4419
vt 0.0475 0.0000
vt -0.0354 0.0000
vt 0.0435 1.0000
vt -0.0394 1.0000
vt -4.6766 0.3440
vt 5.6952 0.3440
vt 5.6952 0.6468
vt -4.6766 0.6469
vt 0.1128 0.1781
vt 0.1128 0.6982
vt -0.3884 0.6982
vt -0.3884 0.1781
vt 5.6952 0.9387
vt -4.6766 0.9387
vt -4.6766 0.0522
vt 5.6952 0.0522
vt 0.6641 0.6674
vt 0.2773 0.6674
vt 0.2773 0.2946
vt 0.6641 0.2946
vt -0.2961 0.3440
vt 1.3147 0.3440
vt 1.3147 0.6468
vt -0.2961 0.6469
vt 0.1128 0.1781
vt 0.1128 0.6982
vt -0.3884 0.6982
vt -0.3884 0.1781
vt 5.6952 0.9387
vt -4.6766 0.9387
vt -4.6766 0.6469
vt 5.6952 0.6468
vt -0.2961 0.0522
vt 1.3147 0.0522
vt 0.6641 0.6674
vt 0.2773 0.6674
vt 0.2773 0.2946
vt 0.6641 0.2946
vt -0.2961 0.3440
vt 1.3147 0.3440
vt 1.3147 0.6468
vt -0.2961 0.6469
vt 0.1128 0.1781
vt 0.1128 0.6982
vt -0.3884 0.6982
vt -0.3884 0.1781
vt 5.6952 0.9387
vt -4.6766 0.9387
vt -4.6766 0.6469
vt 5.6952 0.6468
vt -0.2961 0.0522
vt 1.3147 0.0522
vt 0.6641 0.6674
vt 0.2773 0.6674
vt 0.2773 0.2946
vt 0.6641 0.2946
vn 0.0000 0.0000 -1.0000
vn 1.0000 0.0000 0.0000
vn 0.0000 -1.0000 0.0000
vn -1.0000 -0.0000 0.0000
vn 0.7071 0.0000 0.7071
vn 0.8944 0.0000 -0.4472
vn -0.7071 0.0000 0.7071
vn -0.8944 0.0000 -0.4472
vn -0.7071 0.0000 -0.7071
vn -0.8944 0.0000 0.4472
vn 0.7071 0.0000 -0.7071
vn 0.8944 0.0000 0.4472
vn 0.0000 0.0000 1.0000
vn -0.5773 0.5773 0.5773
vn 0.5773 0.5773 0.5773
vn 0.5773 0.5773 -0.5773
vn -0.5773 0.5773 -0.5773
usemtl Material
s off
f 89/65/11 87/66/11 60/67/11 70/68/11
f 88/69/11 89/65/11 70/68/11 64/70/11
f 67/71/11 57/72/11 84/73/11 86/74/11
f 61/75/11 67/71/11 86/74/11 85/76/11
f 85/76/11 86/74/11 89/65/11 88/69/11
f 87/77/12 89/78/12 137/79/12 136/80/12
f 89/78/13 86/81/13 135/82/13 137/79/13
f 86/81/14 84/83/14 134/84/14 135/82/14
s 1
f 99/85/15 101/86/12 108/87/16 109/88/15
f 98/89/17 99/85/15 109/88/15 106/90/17
f 100/91/14 98/89/17 106/90/17 107/92/18
f 111/93/15 113/94/12 120/95/16 121/96/15
f 110/97/17 111/93/15 121/96/15 118/98/17
f 112/99/14 110/97/17 118/98/17 119/100/18
f 123/101/19 125/102/14 132/103/20 133/104/19
f 122/105/21 123/101/19 133/104/19 130/106/21
f 124/107/12 122/105/21 130/106/21 131/108/22
usemtl Material.001
s off
f 55/109/12 56/110/12 54/111/12 53/112/12
usemtl Material.002
f 49/113/14 50/114/14 52/115/14 51/116/14
usemtl Material.003
f 74/117/23 73/118/23 63/119/23 69/120/23
f 80/121/23 79/122/23 66/123/23 71/124/23
f 78/125/23 80/121/23 71/124/23 65/126/23
f 72/127/23 74/117/23 69/120/23 59/128/23
f 77/129/23 76/130/23 73/118/23 74/117/23
f 71/124/23 66/123/23 76/130/23 77/129/23
f 65/126/23 71/124/23 77/129/23 75/131/23
f 83/132/23 82/133/23 79/122/23 80/121/23
f 68/134/23 62/135/23 82/133/23 83/132/23
f 58/136/23 68/134/23 83/132/23 81/137/23
f 81/138/14 83/139/14 97/140/14 96/141/14
f 80/142/12 78/143/12 94/144/12 95/145/12
f 77/146/13 74/147/13 91/148/13 93/149/13
f 75/150/14 77/146/14 93/149/14 92/151/14
f 74/147/12 72/152/12 90/153/12 91/148/12
f 83/139/13 80/142/13 95/145/13 97/140/13
usemtl Material.005
s 1
f 102/154/24 103/155/25 105/156/26 104/157/27
f 107/158/18 106/159/17 102/160/24 104/161/27
f 108/162/16 107/163/18 104/157/27 105/156/26
f 106/164/17 109/165/15 103/155/25 102/154/24
f 109/166/15 108/167/16 105/168/26 103/169/25
f 114/170/24 115/171/25 117/172/26 116/173/27
f 119/174/18 118/175/17 114/176/24 116/177/27
f 120/178/16 119/179/18 116/180/27 117/181/26
f 118/182/17 121/183/15 115/171/25 114/170/24
f 121/184/15 120/185/16 117/186/26 115/187/25
f 126/188/26 127/189/27 129/190/24 128/191/25
f 131/192/22 130/193/21 126/194/26 128/195/25
f 132/196/20 131/197/22 128/198/25 129/199/24
f 130/200/21 133/201/19 127/189/27 126/188/26
f 133/202/19 132/203/20 129/204/24 127/205/27
