# Blender v2.78 (sub 0) OBJ File: 'predio02.blend'
# www.blender.org
mtllib Buildings02_Commercial door.mtl
o Plane.003
v -2.703690 0.013436 0.023079
v 2.703690 0.013436 0.023079
v -2.703690 2.977462 0.023079
v 2.703690 2.977462 0.023079
v -2.703690 2.384657 0.023079
v -2.703690 1.791852 0.023079
v -2.703690 1.199046 0.023079
v -2.703690 0.606241 0.023079
v 2.703690 0.606241 0.023079
v 2.703690 1.199046 0.023079
v 2.703690 1.791852 0.023079
v 2.703690 2.384657 0.023079
v -2.703690 0.582529 0.023079
v 2.703690 0.582529 0.023079
v -2.703690 1.175334 0.023079
v 2.703690 1.175334 0.023079
v -2.703690 1.768139 0.023079
v 2.703690 1.768139 0.023079
v -2.703690 2.352899 0.023079
v 2.703690 2.352899 0.023079
v 2.703690 0.594385 0.012718
v -2.703690 0.594385 0.012718
v 2.703690 1.187190 0.012718
v -2.703690 1.187190 0.012718
v 2.703690 1.779995 0.012718
v -2.703690 1.779995 0.012718
v 2.703690 2.368778 0.012718
v -2.703690 2.368778 0.012718
v -2.703690 0.013436 -0.021079
v 2.703690 0.013436 -0.021079
v -2.703690 2.977462 -0.021079
v 2.703690 2.977462 -0.021079
v -2.703690 2.397244 -0.019246
v -2.703690 1.807370 -0.018261
v -2.703690 1.214564 -0.018261
v -2.703690 0.621759 -0.018261
v 2.703690 0.621759 -0.018261
v 2.703690 1.214564 -0.018261
v 2.703690 1.807370 -0.018261
v 2.703690 2.397244 -0.019246
v -2.703690 0.567011 -0.018261
v 2.703690 0.567011 -0.018261
v -2.703690 1.159816 -0.018261
v 2.703690 1.159816 -0.018261
v -2.703690 1.752621 -0.018261
v 2.703690 1.752621 -0.018261
v -2.703690 2.340312 -0.019246
v 2.703690 2.340312 -0.019246
v 2.703690 0.594385 -0.031440
v -2.703690 0.594385 -0.031440
v 2.703690 1.187190 -0.031440
v -2.703690 1.187190 -0.031440
v 2.703690 1.779995 -0.031440
v -2.703690 1.779995 -0.031440
v 2.703690 2.368778 -0.031440
v -2.703690 2.368778 -0.031440
v -0.492255 0.131623 0.051621
v 0.492255 0.131623 0.051621
v -0.492255 0.235237 0.051621
v 0.492255 0.235237 0.051621
v -0.437560 0.100209 0.051621
v -0.437560 0.266650 0.051621
v 0.437560 0.100209 0.051621
v 0.437560 0.266650 0.051621
v -0.492255 0.235237 -0.004651
v -0.492255 0.131623 -0.004651
v 0.437560 0.100209 -0.004651
v 0.492255 0.131623 -0.004651
v 0.492255 0.235237 -0.004651
v -0.437560 0.266650 -0.004651
v -0.437560 0.100209 -0.004651
v 0.437560 0.266650 -0.004651
v 0.492255 0.131623 -0.042536
v -0.492255 0.131623 -0.042536
v 0.492255 0.235237 -0.042536
v -0.492255 0.235237 -0.042536
v 0.437560 0.100209 -0.042536
v 0.437560 0.266650 -0.042536
v -0.437560 0.100209 -0.042536
v -0.437560 0.266650 -0.042536
v 0.492255 0.235237 0.013736
v 0.492255 0.131623 0.013736
v -0.437560 0.100209 0.013736
v -0.492255 0.131623 0.013736
v -0.492255 0.235237 0.013736
v 0.437560 0.266650 0.013736
v 0.437560 0.100209 0.013736
v -0.437560 0.266650 0.013736
vt 0.0004 0.5536
vt 0.4805 0.5536
vt 0.4805 0.6503
vt 0.0004 0.6502
vt 0.0003 0.6509
vt 0.4661 0.6509
vt 0.4662 0.6590
vt 0.0004 0.6590
vt 0.0003 0.7578
vt 0.4661 0.7578
vt 0.4662 0.7659
vt 0.0004 0.7659
vt 0.4669 0.6509
vt 0.9336 0.6509
vt 0.9337 0.6590
vt 0.4669 0.6590
vt 0.0003 0.5452
vt 0.4804 0.5452
vt 0.4669 0.7578
vt 0.9452 0.7578
vt 0.9452 0.8503
vt 0.4669 0.8503
vt 0.4662 0.7491
vt 0.0004 0.7491
vt 0.4662 0.8560
vt 0.0004 0.8560
vt 0.9337 0.7480
vt 0.4669 0.7480
vt 0.9453 0.8586
vt 0.4669 0.8586
vt 0.4663 0.7572
vt 0.0004 0.7572
vt 0.4663 0.8641
vt 0.0004 0.8641
vt 0.9337 0.7561
vt 0.4670 0.7561
vt 0.0087 0.1031
vt 0.0165 0.0034
vt 0.4730 0.0012
vt 0.4842 0.1033
vt 0.0131 0.4355
vt 0.0120 0.4290
vt 0.4605 0.4294
vt 0.4595 0.4355
vt 0.0131 0.3256
vt 0.0120 0.3190
vt 0.4605 0.3195
vt 0.4595 0.3256
vt 0.0110 0.5444
vt 0.0099 0.5378
vt 0.4603 0.5383
vt 0.4593 0.5446
vt 0.0095 0.1099
vt 0.4836 0.1099
vt 0.0215 0.2146
vt 0.0087 0.1170
vt 0.4854 0.1172
vt 0.4759 0.2122
vt 0.0081 0.3323
vt 0.4567 0.3327
vt 0.0081 0.2223
vt 0.4567 0.2228
vt 0.0082 0.4423
vt 0.4565 0.4426
vt 0.0095 0.1105
vt 0.4846 0.1105
vt 0.0091 0.3262
vt 0.4556 0.3262
vt 0.0091 0.2162
vt 0.4556 0.2162
vt 0.0091 0.4361
vt 0.4555 0.4361
vt 0.0143 0.2156
vt 0.0003 0.1157
vt 0.9257 0.3170
vt 0.4690 0.3170
vt 0.4690 0.3090
vt 0.9257 0.3090
vt 0.4802 0.0003
vt 0.4927 0.1042
vt 0.4690 0.3176
vt 0.9257 0.3176
vt 0.9257 0.3256
vt 0.4690 0.3256
vt 0.0003 0.1042
vt 0.0094 0.0028
vt 0.0016 0.5400
vt 0.0003 0.4408
vt 0.0037 0.3213
vt 0.0003 0.2204
vt 0.0037 0.4313
vt 0.0003 0.3304
vt 0.4684 0.4314
vt 0.4670 0.4336
vt 0.4684 0.3214
vt 0.4670 0.3236
vt 0.4685 0.5401
vt 0.4671 0.5425
vt 0.4916 0.1074
vt 0.0015 0.1132
vt 0.4938 0.1157
vt 0.4829 0.2129
vt 0.0016 0.3281
vt 0.4650 0.3305
vt 0.0016 0.2182
vt 0.4650 0.2205
vt 0.0016 0.4379
vt 0.4645 0.4408
vt 0.4926 0.1132
vt 0.0052 0.4336
vt 0.4635 0.3282
vt 0.0052 0.3236
vt 0.4635 0.2182
vt 0.0030 0.5423
vt 0.4632 0.4379
vt 0.0014 0.1074
vt 0.7314 0.0795
vt 0.7422 0.0900
vt 0.7436 0.1221
vt 0.7336 0.1325
vt 0.5710 0.0904
vt 0.5810 0.0800
vt 0.5832 0.1330
vt 0.5724 0.1225
vt 0.7442 0.5696
vt 0.6096 0.5701
vt 0.6076 0.5226
vt 0.7422 0.5221
vt 0.7531 0.5603
vt 0.7519 0.5315
vt 0.5999 0.5606
vt 0.5987 0.5319
vt 0.5485 0.0764
vt 0.5672 0.0581
vt 0.7671 0.0791
vt 0.7661 0.1361
vt 0.5475 0.1334
vt 0.7496 0.0581
vt 0.7474 0.1544
vt 0.5650 0.1544
vt 0.7733 0.5728
vt 0.7565 0.5892
vt 0.5776 0.5703
vt 0.5785 0.5193
vt 0.7742 0.5218
vt 0.5933 0.5892
vt 0.5953 0.5030
vt 0.7585 0.5030
vn -0.6482 -0.2170 0.7299
vn 0.6482 -0.2170 0.7299
vn 0.5773 0.5773 0.5773
vn -0.5773 0.5773 0.5773
vn -0.8884 0.0000 0.4591
vn 0.8884 0.0000 0.4591
vn 0.6359 -0.2712 0.7225
vn -0.6359 -0.2712 0.7225
vn -0.8529 0.0000 0.5221
vn 0.8529 0.0000 0.5221
vn -0.5773 -0.5773 0.5773
vn 0.5773 -0.5773 0.5773
vn 0.6359 0.2712 0.7225
vn -0.6359 0.2712 0.7225
vn 0.6482 0.2170 0.7299
vn -0.6482 0.2170 0.7299
vn -0.7556 0.1306 -0.6418
vn -0.5772 0.5765 -0.5783
vn 0.5772 0.5765 -0.5783
vn 0.7556 0.1306 -0.6418
vn -0.6212 0.0000 -0.7836
vn -0.7608 0.1444 -0.6327
vn 0.7608 0.1444 -0.6327
vn 0.6212 0.0000 -0.7836
vn -0.7610 0.1437 -0.6326
vn 0.7610 0.1437 -0.6326
vn -0.6283 0.0000 -0.7780
vn 0.6283 0.0000 -0.7780
vn -0.5771 -0.5760 -0.5789
vn -0.7614 -0.1426 -0.6324
vn 0.7614 -0.1426 -0.6324
vn 0.5771 -0.5760 -0.5789
vn -0.7608 -0.1444 -0.6327
vn 0.7608 -0.1444 -0.6327
vn -0.7550 -0.1324 -0.6422
vn 0.7550 -0.1324 -0.6422
vn 0.1951 -0.7314 0.6534
vn 0.6859 -0.3970 0.6098
vn 0.6859 0.3970 0.6098
vn 0.1951 0.7314 0.6534
vn -0.6859 -0.3970 0.6098
vn -0.1951 -0.7314 0.6534
vn -0.1951 0.7314 0.6534
vn -0.6859 0.3970 0.6098
vn 0.1951 -0.7314 -0.6534
vn -0.1951 -0.7314 -0.6534
vn -0.1951 0.7314 -0.6534
vn 0.1951 0.7314 -0.6534
vn 0.6859 -0.3970 -0.6098
vn 0.6859 0.3970 -0.6098
vn -0.6859 -0.3970 -0.6098
vn -0.6859 0.3970 -0.6098
vn -0.8654 -0.5010 0.0000
vn -0.2577 -0.9662 0.0000
vn 0.8654 -0.5010 0.0000
vn 0.8654 0.5010 0.0000
vn -0.8654 0.5010 0.0000
vn 0.2577 -0.9662 0.0000
vn 0.2577 0.9662 0.0000
vn -0.2577 0.9662 0.0000
usemtl None
s 1
f 5/1/1 12/2/2 4/3/3 3/4/4
f 22/5/5 21/6/6 9/7/7 8/8/8
f 24/9/5 23/10/6 10/11/7 7/12/8
f 26/13/5 25/14/6 11/15/7 6/16/8
f 28/17/9 27/18/10 12/2/2 5/1/1
f 1/19/11 2/20/12 14/21/13 13/22/14
f 8/8/8 9/7/7 16/23/13 15/24/14
f 7/12/8 10/11/7 18/25/13 17/26/14
f 6/16/8 11/15/7 20/27/15 19/28/16
f 13/22/14 14/21/13 21/29/6 22/30/5
f 15/24/14 16/23/13 23/31/6 24/32/5
f 17/26/14 18/25/13 25/33/6 26/34/5
f 19/28/16 20/27/15 27/35/10 28/36/9
f 33/37/17 31/38/18 32/39/19 40/40/20
f 50/41/21 36/42/22 37/43/23 49/44/24
f 52/45/21 35/46/22 38/47/23 51/48/24
f 54/49/21 34/50/25 39/51/26 53/52/24
f 56/53/27 33/37/17 40/40/20 55/54/28
f 29/55/29 41/56/30 42/57/31 30/58/32
f 36/42/22 43/59/33 44/60/34 37/43/23
f 35/46/22 45/61/33 46/62/34 38/47/23
f 34/50/25 47/63/35 48/64/36 39/51/26
f 41/56/30 50/65/21 49/66/24 42/57/31
f 43/59/33 52/67/21 51/68/24 44/60/34
f 45/61/33 54/69/21 53/70/24 46/62/34
f 47/63/35 56/71/27 55/72/28 48/64/36
f 1/73/11 13/74/14 41/56/30 29/55/29
f 2/75/12 1/76/11 29/77/29 30/78/32
f 4/79/3 12/80/2 40/40/20 32/39/19
f 3/81/4 4/82/3 32/83/19 31/84/18
f 5/85/1 3/86/4 31/38/18 33/37/17
f 6/87/8 19/88/16 47/63/35 34/50/25
f 7/89/8 17/90/14 45/61/33 35/46/22
f 8/91/8 15/92/14 43/59/33 36/42/22
f 9/93/7 21/94/6 49/44/24 37/43/23
f 10/95/7 23/96/6 51/48/24 38/47/23
f 11/97/7 25/98/6 53/52/24 39/51/26
f 12/80/2 27/99/10 55/54/28 40/40/20
f 13/74/14 22/100/5 50/65/21 41/56/30
f 14/101/13 2/102/12 30/58/32 42/57/31
f 15/92/14 24/103/5 52/67/21 43/59/33
f 16/104/13 9/93/7 37/43/23 44/60/34
f 17/90/14 26/105/5 54/69/21 45/61/33
f 18/106/13 10/95/7 38/47/23 46/62/34
f 19/88/16 28/107/9 56/71/27 47/63/35
f 20/108/15 11/97/7 39/51/26 48/64/36
f 21/109/6 14/101/13 42/57/31 49/66/24
f 22/110/5 8/91/8 36/42/22 50/41/21
f 23/111/6 16/104/13 44/60/34 51/68/24
f 24/112/5 7/89/8 35/46/22 52/45/21
f 25/113/6 18/106/13 46/62/34 53/70/24
f 26/114/5 6/87/8 34/50/25 54/49/21
f 27/115/10 20/108/15 48/64/36 55/72/28
f 28/116/9 5/85/1 33/37/17 56/53/27
f 63/117/37 58/118/38 60/119/39 64/120/40
f 57/121/41 61/122/42 62/123/43 59/124/44
f 61/122/42 63/117/37 64/120/40 62/123/43
f 77/125/45 79/126/46 80/127/47 78/128/48
f 73/129/49 77/125/45 78/128/48 75/130/50
f 79/126/46 74/131/51 76/132/52 80/127/47
f 57/121/41 66/133/53 71/134/54 61/122/42
f 58/118/38 68/135/55 69/136/56 60/119/39
f 59/124/44 65/137/57 66/133/53 57/121/41
f 61/122/42 71/134/54 67/138/58 63/117/37
f 64/120/40 72/139/59 70/140/60 62/123/43
f 62/123/43 70/140/60 65/137/57 59/124/44
f 63/117/37 67/138/58 68/135/55 58/118/38
f 60/119/39 69/136/56 72/139/59 64/120/40
f 73/129/49 82/141/55 87/142/58 77/125/45
f 74/131/51 84/143/53 85/144/57 76/132/52
f 75/130/50 81/145/56 82/141/55 73/129/49
f 77/125/45 87/142/58 83/146/54 79/126/46
f 80/127/47 88/147/60 86/148/59 78/128/48
f 78/128/48 86/148/59 81/145/56 75/130/50
f 79/126/46 83/146/54 84/143/53 74/131/51
f 76/132/52 85/144/57 88/147/60 80/127/47
