# Blender v2.78 (sub 0) OBJ File: 'predio02.blend'
# www.blender.org
mtllib Buildings02_WindowB.mtl
o Plane
v -1.090060 -0.999096 0.031490
v 0.273418 -0.999096 0.031490
v -1.090060 0.933033 0.031490
v 0.273418 0.933033 0.031490
v -1.090060 -0.999096 0.011490
v 0.273418 -0.999096 0.011490
v -1.090060 0.933033 0.011490
v 0.273418 0.933033 0.011490
vt 0.0001 0.0001
vt 0.9999 0.0001
vt 0.9999 0.9999
vt 0.0001 0.9999
vt 0.0001 0.0001
vt 0.0001 0.9999
vt 0.9999 0.9999
vt 0.9999 0.0001
vn 0.0000 -0.0000 1.0000
vn 0.0000 0.0000 -1.0000
usemtl vidro
s off
f 1/1/1 2/2/1 4/3/1 3/4/1
f 5/5/2 7/6/2 8/7/2 6/8/2
o Cube.000_Cube.006
v 1.676846 0.966644 0.061861
v -1.117897 0.966644 0.061861
v 1.676846 -1.055095 0.061861
v -1.117897 -1.055095 0.061861
v -1.051325 -1.008496 0.042004
v 0.289043 -1.008496 0.042004
v -1.051325 0.920045 0.042004
v 0.289043 0.920045 0.042004
v -1.049506 0.917169 0.058833
v -1.049506 -1.005620 -0.058834
v 1.676846 0.966644 -0.061862
v -1.117897 0.966644 -0.061862
v 1.676846 -1.055095 -0.061862
v -1.117897 -1.055095 -0.061862
v 1.608455 -1.005620 -0.058834
v -1.049506 0.917169 -0.058834
v 1.608455 0.917169 -0.058834
v -1.049506 -1.005620 0.058833
v 1.608455 0.917169 0.058833
v 1.608455 -1.005620 0.058833
v -1.018524 0.872851 0.040939
v -1.018524 -0.961302 -0.000453
v 0.289043 0.920045 -0.001518
v -1.051325 0.920045 -0.001518
v 0.289043 -1.008496 -0.001518
v -1.051325 -1.008496 -0.001518
v 0.256242 -0.961302 -0.000453
v -1.018524 0.872851 -0.000453
v 0.256242 0.872851 -0.000453
v -1.018524 -0.961302 0.040939
v 0.256242 0.872851 0.040939
v 0.256242 -0.961302 0.040939
v -1.051325 -1.008496 0.042004
v 0.289043 -1.008496 0.042004
v 0.289043 0.920045 0.042004
v -1.051325 0.920045 0.042004
v -1.018524 0.872851 0.040939
v 0.256242 -0.961302 -0.000453
v 0.289043 -1.008496 -0.001518
v 0.256242 -0.961302 0.040939
v 0.256242 0.872851 0.040939
v -1.018524 -0.961302 -0.000453
v -1.051325 -1.008496 -0.001518
v 0.289043 0.920045 -0.001518
v -1.051325 0.920045 -0.001518
v -1.018524 0.872851 -0.000453
v -1.018524 -0.961302 0.040939
v 0.256242 0.872851 -0.000453
vt 0.0191 0.0001
vt 0.0191 0.9999
vt 0.0191 0.9999
vt 0.0191 0.0001
vt 0.0769 0.0193
vt 0.6297 0.0193
vt 0.6297 0.0383
vt 0.0769 0.0383
vt 0.5913 0.6285
vt 0.0385 0.6285
vt 0.0385 0.6095
vt 0.5913 0.6095
vt 0.0575 0.0001
vt 0.0575 0.6093
vt 0.0575 0.6093
vt 0.0575 0.0001
vt 0.0575 0.0001
vt 0.0575 0.6093
vt 0.0575 0.6093
vt 0.0575 0.0001
vt 0.0769 0.0193
vt 0.6297 0.0193
vt 0.6297 0.0383
vt 0.0769 0.0383
vt 0.5913 0.6285
vt 0.0385 0.6285
vt 0.0385 0.6095
vt 0.5913 0.6095
vt 0.0385 0.6093
vt 0.0385 0.0001
vt 0.0001 0.9999
vt 0.0001 0.0001
vt 0.0191 0.0001
vt 0.0191 0.9999
vt 0.0191 0.9999
vt 0.0191 0.0001
vt 0.6297 0.0383
vt 0.0769 0.0383
vt 0.5913 0.6285
vt 0.0385 0.6285
vt 0.0385 0.6093
vt 0.0385 0.0001
vt 0.0001 0.9999
vt 0.0001 0.0001
vt 0.0769 0.0193
vt 0.6297 0.0193
vt 0.0385 0.6095
vt 0.5913 0.6095
vt 0.0385 0.6093
vt 0.0385 0.0001
vt 0.0001 0.9999
vt 0.0001 0.0001
vt 0.6297 0.0383
vt 0.0769 0.0383
vt 0.5913 0.6285
vt 0.0385 0.6285
vt 0.0385 0.6093
vt 0.0385 0.0001
vt 0.0001 0.9999
vt 0.0001 0.0001
vt 0.0769 0.0193
vt 0.6297 0.0193
vt 0.0385 0.6095
vt 0.5913 0.6095
vt 0.0191 0.0001
vt 0.0191 0.9999
vn -0.0442 0.0000 0.9990
vn 0.0000 1.0000 0.0000
vn 0.0000 -1.0000 0.0000
vn 0.0325 0.0000 -0.9995
vn 0.0442 0.0000 -0.9990
vn 1.0000 0.0000 0.0000
vn -1.0000 0.0000 0.0000
vn -0.0325 0.0000 0.9995
vn 0.0000 0.0611 -0.9981
vn 0.0000 -0.0611 0.9981
vn 0.0442 0.0000 0.9990
vn -0.0442 0.0000 -0.9990
vn 0.0000 0.0611 0.9981
vn 0.0000 -0.0611 -0.9981
vn 0.0000 0.0226 -0.9997
vn 0.0000 -0.0226 0.9997
vn 0.0325 0.0000 0.9995
vn -0.0325 0.0000 -0.9995
vn 0.0000 0.0226 0.9997
vn 0.0000 -0.0226 -0.9997
usemtl Material.003
s off
f 11/9/3 9/10/3 27/11/3 28/12/3
f 38/13/4 40/14/4 46/15/4 50/16/4
f 27/17/5 17/18/5 24/19/5 25/20/5
f 51/21/6 32/22/6 36/23/6 30/24/6
f 22/25/7 20/26/7 24/27/7 18/28/7
f 26/29/4 28/30/4 23/31/4 18/32/4
f 39/33/5 45/34/5 54/35/5 56/36/5
f 17/37/8 26/38/8 18/28/8 24/27/8
f 28/12/9 27/11/9 25/39/9 23/40/9
f 14/41/10 16/42/10 49/43/10 48/44/10
f 21/45/11 22/46/11 18/32/11 23/31/11
f 9/47/12 10/48/12 17/18/12 27/17/12
f 10/49/13 12/50/13 26/38/13 17/37/13
f 19/51/14 21/52/14 23/40/14 25/39/14
f 12/53/15 11/54/15 28/30/15 26/29/15
f 20/55/16 19/56/16 25/20/16 24/19/16
f 29/57/8 55/58/8 30/24/8 36/23/8
f 48/44/9 49/43/9 37/59/9 35/60/9
f 47/61/17 34/62/17 50/16/17 46/15/17
f 43/63/18 44/64/18 45/34/18 39/33/18
f 15/65/19 13/66/19 55/58/19 29/57/19
f 31/67/20 33/68/20 35/60/20 37/59/20
f 41/69/21 42/70/21 40/14/21 38/13/21
f 53/71/22 52/72/22 56/36/22 54/35/22
f 16/42/8 14/41/8 33/73/8 31/74/8
