# Blender v2.78 (sub 0) OBJ File: ''
# www.blender.org
mtllib Grist door.mtl
o Cube.004_Cube.011
v 0.019902 -0.031122 2.402961
v 0.019902 -0.031122 -2.340461
v 0.019902 3.151107 2.402961
v 0.019902 3.151107 -2.340461
v 0.019902 2.090364 2.402961
v 0.019902 1.029621 2.402961
v 0.019902 1.029621 -2.340461
v 0.019902 2.090364 -2.340461
v 0.019902 0.956466 2.402961
v 0.019902 0.956466 -2.340461
v 0.019902 2.035498 2.402961
v 0.019902 2.035498 -2.340461
v -0.015592 0.993044 -2.340461
v -0.015592 0.993044 2.402961
v -0.015592 2.062931 -2.340461
v -0.015592 2.062931 2.402961
v -0.008547 -0.031122 2.402961
v -0.008547 -0.031122 -2.340461
v -0.008547 3.151107 2.402961
v -0.008547 3.151107 -2.340461
v -0.005635 2.102902 2.402961
v -0.006463 1.040310 2.402961
v -0.006463 1.040310 -2.340461
v -0.005635 2.102902 -2.340461
v -0.006463 0.945778 2.402961
v -0.006463 0.945778 -2.340461
v -0.005635 2.022960 2.402961
v -0.005635 2.022960 -2.340461
v -0.044041 0.993044 -2.340461
v -0.044041 0.993044 2.402961
v -0.044041 2.062931 -2.340461
v -0.044041 2.062931 2.402961
v -0.129157 2.996842 -2.380409
v 0.240910 3.217524 2.409900
v -0.129156 -0.038208 -2.380412
v 0.240910 3.217524 -2.513601
v 0.240910 -0.055049 2.409896
v 0.240910 -0.055049 -2.513604
v -0.129158 2.996842 2.234116
v -0.237317 3.174269 2.409900
v -0.129156 -0.038208 2.234112
v -0.237317 3.174269 -2.513601
v -0.237316 -0.055049 2.409896
v -0.237316 -0.055049 -2.513604
v 0.146124 -0.038208 -2.380412
v 0.146123 3.021740 2.234116
v 0.146124 -0.038208 2.234112
v 0.146124 3.021740 -2.380409
vt 0.0352 0.6712
vt 0.9690 0.6712
vt 0.9690 0.9856
vt 0.0352 0.9856
vt 0.0352 0.3285
vt 0.9689 0.3285
vt 0.9689 0.3436
vt 0.0352 0.3436
vt 0.0352 0.6565
vt 0.9690 0.6565
vt 0.0352 0.0206
vt 0.9689 0.0206
vt 0.9689 0.3133
vt 0.0352 0.3133
vt 0.9689 0.6417
vt 0.0352 0.6417
vt 0.0352 0.6712
vt 0.0352 0.9856
vt 0.9690 0.9856
vt 0.9690 0.6712
vt 0.0352 0.3285
vt 0.0352 0.3436
vt 0.9689 0.3436
vt 0.9689 0.3285
vt 0.0352 0.6565
vt 0.9690 0.6565
vt 0.0352 0.0206
vt 0.0352 0.3133
vt 0.9689 0.3133
vt 0.9689 0.0206
vt 0.0352 0.6417
vt 0.9689 0.6417
vt 0.1670 0.3815
vt 0.7570 0.3815
vt 0.7570 0.4635
vt 0.1670 0.4635
vt 0.2735 0.3202
vt 0.5071 0.3202
vt 0.5071 0.1512
vt 0.2735 0.1512
vt 0.7570 0.5258
vt 0.1670 0.5258
vt 0.2740 0.8802
vt 1.0156 0.8802
vt 1.0156 0.9569
vt 0.2740 0.9569
vt 0.2740 0.8160
vt 1.0156 0.8160
vt 0.1670 0.3118
vt 0.7570 0.3118
vt 0.2740 0.7527
vt 1.0156 0.7527
vt 0.2735 0.7279
vt 0.5071 0.7279
vt 0.5071 0.5348
vt 0.2735 0.5348
vn 0.7042 -0.3457 0.6200
vn 0.7042 -0.3457 -0.6200
vn 0.5773 0.5773 -0.5773
vn 0.5773 0.5773 0.5773
vn 0.4338 0.0000 0.9010
vn 0.4338 0.0000 -0.9010
vn 0.7185 -0.2913 -0.6315
vn 0.7185 -0.2913 0.6315
vn 0.3607 0.0000 0.9326
vn 0.3607 0.0000 -0.9326
vn 0.5773 -0.5773 0.5773
vn 0.5773 -0.5773 -0.5773
vn 0.7185 0.2913 -0.6315
vn 0.7185 0.2913 0.6315
vn 0.7042 0.3457 -0.6200
vn 0.7042 0.3457 0.6200
vn -0.5545 0.2223 0.8019
vn -0.5782 0.5766 0.5772
vn -0.5782 0.5766 -0.5772
vn -0.5545 0.2223 -0.8019
vn -0.8072 0.0000 0.5903
vn -0.5797 0.2026 0.7892
vn -0.5797 0.2026 -0.7892
vn -0.8072 0.0000 -0.5902
vn -0.8150 0.0000 0.5795
vn -0.8150 0.0000 -0.5795
vn -0.5780 -0.5768 0.5772
vn -0.5795 -0.2016 0.7896
vn -0.5795 -0.2016 -0.7896
vn -0.5780 -0.5768 -0.5772
vn -0.5546 -0.2230 0.8017
vn -0.5546 -0.2230 -0.8017
vn 0.4728 0.0000 0.8812
vn 0.7268 -0.4473 0.5211
vn -0.6486 -0.4924 0.5803
vn -0.4428 0.0000 0.8966
vn -0.6865 -0.5041 -0.5240
vn -0.5001 0.0000 -0.8660
vn -0.8517 0.0000 -0.5240
vn -0.9176 -0.2813 -0.2806
vn -0.8979 -0.3223 0.2998
vn -0.7763 0.0000 0.6304
vn 0.7587 -0.4562 -0.4650
vn 0.8147 0.0000 0.5798
vn 0.9271 -0.2777 0.2516
vn 0.9407 -0.2432 -0.2364
vn 0.8802 0.0000 -0.4746
vn 0.5258 0.0000 -0.8506
usemtl Material
s 1
f 5/1/1 8/2/2 4/3/3 3/4/4
f 14/5/5 13/6/6 7/7/7 6/8/8
f 16/9/9 15/10/10 8/2/2 5/1/1
f 1/11/11 2/12/12 10/13/13 9/14/14
f 6/8/8 7/7/7 12/15/15 11/16/16
f 9/14/14 10/13/13 13/6/6 14/5/5
f 11/16/16 12/15/15 15/10/10 16/9/9
f 21/17/17 19/18/18 20/19/19 24/20/20
f 30/21/21 22/22/22 23/23/23 29/24/24
f 32/25/25 21/17/17 24/20/20 31/26/26
f 17/27/27 25/28/28 26/29/29 18/30/30
f 22/22/22 27/31/31 28/32/32 23/23/23
f 25/28/28 30/21/21 29/24/24 26/29/29
f 27/31/31 32/25/25 31/26/26 28/32/32
f 1/11/11 9/14/14 25/28/28 17/27/27
f 2/12/12 1/11/11 17/27/27 18/30/30
f 4/3/3 8/2/2 24/20/20 20/19/19
f 3/4/4 4/3/3 20/19/19 19/18/18
f 5/1/1 3/4/4 19/18/18 21/17/17
f 6/8/8 11/16/16 27/31/31 22/22/22
f 7/7/7 13/6/6 29/24/24 23/23/23
f 8/2/2 15/10/10 31/26/26 24/20/20
f 9/14/14 14/5/5 30/21/21 25/28/28
f 10/13/13 2/12/12 18/30/30 26/29/29
f 11/16/16 16/9/9 32/25/25 27/31/31
f 12/15/15 7/7/7 23/23/23 28/32/32
f 13/6/6 10/13/13 26/29/29 29/24/24
f 14/5/5 6/8/8 22/22/22 30/21/21
f 15/10/10 12/15/15 28/32/32 31/26/26
f 16/9/9 5/1/1 21/17/17 32/25/25
f 45/33/33 48/34/34 33/35/35 35/36/36
f 39/37/37 41/38/38 43/39/39 40/40/40
f 35/36/36 33/35/35 42/41/41 44/42/42
f 33/43/35 39/44/37 40/45/40 42/46/41
f 48/47/34 46/48/43 39/44/37 33/43/35
f 38/49/44 36/50/45 48/34/34 45/33/33
f 36/51/45 34/52/46 46/48/43 48/47/34
f 34/53/46 37/54/47 47/55/48 46/56/43
f 46/56/43 47/55/48 41/38/38 39/37/37
