# Blender v2.78 (sub 0) OBJ File: ''
# www.blender.org
mtllib Buildings03_Glass door.mtl
o Cube.003_Cube.009
v -0.075616 -0.190118 -0.086538
v -0.137606 -0.190118 -0.086538
v -0.137606 2.544853 -0.086541
v -0.075615 2.584755 -0.086541
v -0.075616 -0.190118 -0.914990
v -0.137606 -0.190118 -0.914990
v -0.137606 2.544853 -0.914993
v -0.075616 2.584755 -0.914993
v -0.074476 -0.240751 -0.976765
v -0.074476 -0.240751 -0.024764
v -0.074476 2.636121 -0.976767
v -0.138745 2.634603 -0.024767
v -0.138746 -0.240751 -0.024764
v -0.138746 2.634603 -0.976767
v -0.074476 2.636121 -0.024767
v -0.138746 -0.240751 -0.976765
v -0.075616 -0.190118 0.050437
v -0.075615 2.584755 0.050440
v -0.137606 2.544853 0.050440
v -0.137606 -0.190118 0.050437
v -0.075616 -0.190118 0.878889
v -0.137606 -0.190118 0.878889
v -0.075616 2.584755 0.878891
v -0.137606 2.544853 0.878891
v -0.074476 -0.240751 0.940663
v -0.074476 -0.240751 -0.011338
v -0.074476 2.636121 0.940666
v -0.138745 2.634603 -0.011335
v -0.138746 -0.240751 -0.011338
v -0.138746 2.634603 0.940666
v -0.074476 2.636121 -0.011335
v -0.138746 -0.240751 0.940663
v -0.088876 -0.176704 -0.071018
v -0.088876 -0.176704 -0.931217
v -0.088876 2.599073 -0.931217
v -0.088876 2.599073 -0.071018
v -0.124161 -0.176704 -0.071018
v -0.124161 2.599073 -0.071018
v -0.124161 2.599073 -0.931217
v -0.124161 -0.176704 -0.931217
v -0.088876 -0.176704 0.007494
v -0.088876 2.599073 0.007494
v -0.088876 2.599073 0.867693
v -0.088876 -0.176704 0.867693
v -0.124161 -0.176704 0.007494
v -0.124161 -0.176704 0.867693
v -0.124161 2.599073 0.867693
v -0.124161 2.599073 0.007494
vt 0.1918 0.0119
vt 0.8054 0.0120
vt 0.8054 0.8765
vt 0.1918 0.8764
vt 0.1918 0.0119
vt 0.1918 0.8764
vt 0.8054 0.8765
vt 0.8054 0.0120
vt 0.1918 0.0119
vt 0.1918 0.8764
vt 0.8054 0.8765
vt 0.8054 0.0120
vt 0.1918 0.0119
vt 0.8054 0.0120
vt 0.8054 0.8765
vt 0.1918 0.8764
vt 0.5719 0.5583
vt 0.5719 0.5352
vt 0.0001 0.5352
vt 0.0001 0.5583
vt 0.9999 0.1091
vt 0.9999 0.0771
vt 0.0001 0.0771
vt 0.0001 0.1091
vt 0.7438 0.4274
vt 0.7438 0.4061
vt 0.0001 0.4061
vt 0.0001 0.4274
vt 0.6385 0.2849
vt 0.6385 0.2563
vt 0.0001 0.2563
vt 0.0001 0.2849
vt 0.9999 0.1872
vt 0.0001 0.1872
vt 0.6385 0.3547
vt 0.0001 0.3547
vt 0.0001 0.4795
vt 0.5719 0.4795
vt 0.0001 0.3550
vt 0.7438 0.3550
vt 0.5719 0.6148
vt 0.0001 0.6148
vt 0.7438 0.4792
vt 0.0001 0.4792
vt 0.0001 0.0001
vt 0.9999 0.0001
vt 0.0001 0.1874
vt 0.6385 0.1874
vt 0.6385 0.1874
vt 0.0001 0.1874
vt 0.5719 0.4795
vt 0.0001 0.4795
vt 0.7438 0.3550
vt 0.0001 0.3550
vt 0.9999 0.0001
vt 0.0001 0.0001
vt 0.5719 0.5583
vt 0.0001 0.5583
vt 0.0001 0.5352
vt 0.5719 0.5352
vt 0.9999 0.1091
vt 0.0001 0.1091
vt 0.0001 0.0771
vt 0.9999 0.0771
vt 0.7438 0.4274
vt 0.0001 0.4274
vt 0.0001 0.4061
vt 0.7438 0.4061
vt 0.6385 0.2849
vt 0.0001 0.2849
vt 0.0001 0.2563
vt 0.6385 0.2563
vt 0.9999 0.1872
vt 0.0001 0.1872
vt 0.6385 0.3547
vt 0.0001 0.3547
vt 0.0001 0.4795
vt 0.5719 0.4795
vt 0.0001 0.3550
vt 0.7438 0.3550
vt 0.5719 0.6148
vt 0.0001 0.6148
vt 0.7438 0.4792
vt 0.0001 0.4792
vt 0.0001 0.0001
vt 0.9999 0.0001
vt 0.0001 0.1874
vt 0.6385 0.1874
vt 0.0001 0.1874
vt 0.6385 0.1874
vt 0.0001 0.4795
vt 0.5719 0.4795
vt 0.0001 0.3550
vt 0.7438 0.3550
vt 0.0001 0.0001
vt 0.9999 0.0001
vn 1.0000 0.0000 0.0000
vn -1.0000 0.0000 0.0000
vn 0.0000 -0.0000 -1.0000
vn 0.0000 1.0000 0.0000
vn 0.5412 -0.8409 -0.0000
vn 0.0000 0.0000 1.0000
vn 0.9997 0.0225 0.0000
vn 0.9998 0.0000 0.0185
vn -0.9998 0.0000 -0.0184
vn -0.9999 -0.0127 0.0000
vn 0.9998 -0.0000 -0.0184
vn 0.9998 -0.0222 -0.0000
vn -0.9997 0.0225 0.0000
vn -0.9998 0.0000 0.0185
vn -0.0236 0.9997 0.0000
vn 0.0000 -1.0000 -0.0000
vn 0.9998 0.0000 -0.0185
vn -0.9998 0.0000 0.0184
vn 0.9998 -0.0000 0.0184
vn -0.9998 0.0000 -0.0185
g Cube.003_Cube.009_Cube.003_Cube.009_Material.004
usemtl Material.004
s 1
f 33/1/1 34/2/1 35/3/1 36/4/1
f 37/5/2 38/6/2 39/7/2 40/8/2
f 41/9/1 42/10/1 43/11/1 44/12/1
f 45/13/2 46/14/2 47/15/2 48/16/2
g Cube.003_Cube.009_Cube.003_Cube.009_Material.005
usemtl Material.005
f 1/17/3 2/18/3 3/19/3 4/20/3
f 5/21/4 6/22/4 2/23/4 1/24/4
f 4/25/5 3/26/5 7/27/5 8/28/5
f 8/29/6 7/30/6 6/31/6 5/32/6
f 9/33/7 5/21/7 1/24/7 10/34/7
f 11/35/8 8/29/8 5/32/8 9/36/8
f 12/37/9 3/19/9 2/18/9 13/38/9
f 14/39/10 7/27/10 3/26/10 12/40/10
f 10/41/11 1/17/11 4/20/11 15/42/11
f 15/43/12 4/25/12 8/28/12 11/44/12
f 13/45/13 2/23/13 6/22/13 16/46/13
f 16/47/14 6/31/14 7/30/14 14/48/14
f 14/48/3 11/49/3 9/50/3 16/47/3
f 13/38/6 10/51/6 15/52/6 12/37/6
f 12/40/15 15/53/15 11/54/15 14/39/15
f 16/46/16 9/55/16 10/56/16 13/45/16
f 17/57/6 18/58/6 19/59/6 20/60/6
f 21/61/4 17/62/4 20/63/4 22/64/4
f 18/65/5 23/66/5 24/67/5 19/68/5
f 23/69/3 21/70/3 22/71/3 24/72/3
f 25/73/7 26/74/7 17/62/7 21/61/7
f 27/75/17 25/76/17 21/70/17 23/69/17
f 28/77/18 29/78/18 20/60/18 19/59/18
f 30/79/10 28/80/10 19/68/10 24/67/10
f 26/81/19 31/82/19 18/58/19 17/57/19
f 31/83/12 27/84/12 23/66/12 18/65/12
f 29/85/13 32/86/13 22/64/13 20/63/13
f 32/87/20 30/88/20 24/72/20 22/71/20
f 30/88/6 32/87/6 25/89/6 27/90/6
f 29/78/3 28/77/3 31/91/3 26/92/3
f 28/80/15 30/79/15 27/93/15 31/94/15
f 32/86/16 29/85/16 26/95/16 25/96/16
o Cube.000_Cube.004
v 0.008652 -0.144958 0.986909
v 0.008653 2.619052 0.986913
v -0.053338 2.579306 0.986913
v -0.053338 -0.144958 0.986909
v 0.008652 -0.144958 2.049149
v -0.053338 -0.144958 2.049149
v 0.008652 2.619052 2.049153
v -0.053338 2.579306 2.049153
v 0.009792 -0.195392 2.238568
v 0.009792 -0.195392 0.907198
v 0.009792 2.670218 2.238571
v -0.054477 2.629011 0.907202
v -0.054477 -0.195392 0.907198
v -0.054477 2.629011 2.128864
v 0.009793 2.670218 0.907202
v -0.054477 -0.195392 2.128860
v 0.121503 -0.232668 -2.168523
v 0.121506 2.668689 -2.168519
v -0.121501 2.626968 -2.168519
v -0.121502 -0.232668 -2.168523
v 0.121503 -0.232668 2.168520
v -0.121502 -0.232668 2.168520
v 0.121503 2.668689 2.168524
v -0.121502 2.626968 2.168524
v 0.125970 -0.285609 2.248231
v 0.125970 -0.285609 -2.248234
v 0.125970 2.722395 2.248235
v -0.125967 2.679142 -2.248230
v -0.125968 -0.285609 -2.248234
v -0.125968 2.679142 2.248235
v 0.125973 2.722396 -2.248230
v -0.125968 -0.285609 2.248231
v -0.016512 -0.212156 -0.983455
v -0.016512 -0.212156 -2.085593
v -0.016512 2.679033 -2.085593
v -0.016512 2.679033 -0.983454
v -0.017997 -0.201678 -1.000076
v -0.017997 2.616838 -1.000076
v -0.017997 2.616838 -2.074511
v -0.017997 -0.201678 -2.074511
v -0.016512 -0.188493 0.998015
v -0.016512 2.655369 0.998015
v -0.016512 2.655369 2.082112
v -0.016512 -0.188493 2.082112
v -0.017997 -0.201678 1.000076
v -0.017997 -0.201678 2.074511
v -0.017997 2.616838 2.074512
v -0.017997 2.616838 1.000077
v -0.043477 -0.177520 -1.021126
v -0.043478 2.656266 -1.021129
v 0.018513 2.616521 -1.021129
v 0.018513 -0.177520 -1.021126
v -0.043477 -0.177520 -2.090117
v 0.018513 -0.177520 -2.090117
v -0.043477 2.656266 -2.090120
v 0.018513 2.616520 -2.090120
v -0.044617 -0.227954 -2.169828
v -0.044617 -0.227954 -0.941415
v -0.044617 2.707432 -2.169831
v 0.019652 2.666225 -0.941418
v 0.019652 -0.227954 -0.941415
v 0.019652 2.666225 -2.169831
v -0.044618 2.707433 -0.941418
v 0.019652 -0.227954 -2.169828
v 0.008652 -0.144958 0.986909
v 0.008653 2.619052 0.986913
v -0.053338 2.579306 0.986913
v -0.053338 -0.144958 0.986909
v 0.009792 -0.195392 0.907198
v -0.054477 2.629011 0.907202
v -0.054477 -0.195392 0.907198
v 0.009793 2.670218 0.907202
vt 0.1918 0.0119
vt 0.8054 0.0120
vt 0.8054 0.8765
vt 0.1918 0.8764
vt 0.1918 0.0119
vt 0.1918 0.8764
vt 0.8054 0.8765
vt 0.8054 0.0120
vt 0.1918 0.0119
vt 0.1918 0.8764
vt 0.8054 0.8765
vt 0.8054 0.0120
vt 0.1918 0.0119
vt 0.8054 0.0120
vt 0.8054 0.8765
vt 0.1918 0.8764
vt 0.9999 0.1091
vt 0.0001 0.1091
vt 0.0001 0.0771
vt 0.9999 0.0771
vt 0.7438 0.4274
vt 0.0001 0.4274
vt 0.0001 0.4061
vt 0.7438 0.4061
vt 0.6385 0.2849
vt 0.0001 0.2849
vt 0.0001 0.2563
vt 0.6385 0.2563
vt 0.9999 0.1872
vt 0.0001 0.1872
vt 0.6385 0.3547
vt 0.0001 0.3547
vt 0.0001 0.3550
vt 0.7438 0.3550
vt 0.7438 0.4792
vt 0.0001 0.4792
vt 0.0001 0.0001
vt 0.9999 0.0001
vt 0.0001 0.1874
vt 0.6385 0.1874
vt 0.5719 0.5583
vt 0.0001 0.5583
vt 0.0001 0.5352
vt 0.5719 0.5352
vt 0.9999 0.1091
vt 0.0001 0.1091
vt 0.0001 0.0771
vt 0.9999 0.0771
vt 0.7438 0.4274
vt 0.0001 0.4274
vt 0.0001 0.4061
vt 0.7438 0.4061
vt 0.6385 0.2849
vt 0.0001 0.2849
vt 0.0001 0.2563
vt 0.6385 0.2563
vt 0.9999 0.1872
vt 0.0001 0.1872
vt 0.6385 0.3547
vt 0.0001 0.3547
vt 0.0001 0.4795
vt 0.5719 0.4795
vt 0.0001 0.3550
vt 0.7438 0.3550
vt 0.5719 0.6148
vt 0.0001 0.6148
vt 0.7438 0.4792
vt 0.0001 0.4792
vt 0.0001 0.0001
vt 0.9999 0.0001
vt 0.0001 0.1874
vt 0.6385 0.1874
vt 0.0176 0.4726
vt 0.9821 0.4726
vt 0.9682 0.5194
vt 0.0176 0.5194
vt 0.9999 0.1091
vt 0.0001 0.1091
vt 0.0001 0.0771
vt 0.9999 0.0771
vt 0.7438 0.4274
vt 0.0001 0.4274
vt 0.0001 0.4061
vt 0.7438 0.4061
vt 0.6385 0.2849
vt 0.0001 0.2849
vt 0.0001 0.2563
vt 0.6385 0.2563
vt 0.9999 0.1872
vt 0.0001 0.1872
vt 0.6385 0.3547
vt 0.0001 0.3547
vt 0.9856 0.5796
vt 0.0000 0.5796
vt 0.0001 0.3550
vt 0.7438 0.3550
vt 0.0000 0.4124
vt 1.0000 0.4124
vt 0.7438 0.4792
vt 0.0001 0.4792
vt 0.0001 0.0001
vt 0.9999 0.0001
vt 0.0001 0.1874
vt 0.6385 0.1874
vt 0.0000 0.3639
vt 0.9856 0.3639
vt 0.0176 0.4726
vt 0.9821 0.4726
vt 0.9682 0.5194
vt 0.0176 0.5194
vt 0.9856 0.5796
vt 0.0000 0.5796
vt 0.0000 0.4124
vt 1.0000 0.4124
vt 0.0000 0.3639
vt 0.9856 0.3639
vn 1.0000 0.0000 0.0000
vn -1.0000 0.0000 0.0000
vn 0.0000 1.0000 0.0000
vn 0.5397 -0.8418 0.0000
vn 0.0000 0.0000 -1.0000
vn 0.9997 0.0226 0.0000
vn 1.0000 0.0000 -0.0060
vn -0.9997 -0.0229 0.0000
vn 0.9998 -0.0223 0.0000
vn -0.9997 0.0226 0.0000
vn -0.9999 0.0000 -0.0143
vn 0.0000 -0.0000 1.0000
vn 0.1692 -0.9856 -0.0000
vn 0.9965 0.0841 0.0000
vn 0.9984 0.0000 -0.0560
vn -0.9984 0.0000 0.0559
vn -0.9964 -0.0853 -0.0000
vn 0.9984 -0.0000 0.0560
vn 0.9966 -0.0829 0.0000
vn -0.9965 0.0841 0.0000
vn -0.9984 0.0000 -0.0559
vn -0.5397 -0.8418 0.0000
vn -0.9999 0.0000 0.0143
vn 0.4301 0.0000 0.9028
vn 0.5431 0.0000 0.8397
vn 0.9999 -0.0000 -0.0143
vn 0.9997 -0.0229 -0.0000
vn -0.5431 0.0000 0.8397
vn -0.7120 0.0000 0.7022
vn -0.9998 -0.0223 -0.0000
vn 0.9999 0.0000 0.0143
vn -0.4301 0.0000 -0.9028
vn -0.5431 0.0000 -0.8397
vn 0.5431 0.0000 -0.8397
vn 0.7120 0.0000 -0.7022
g Cube.000_Cube.004_Cube.000_Cube.004_Material.004
usemtl Material.004
s 1
f 81/97/21 82/98/21 83/99/21 84/100/21
f 85/101/22 86/102/22 87/103/22 88/104/22
f 89/105/21 90/106/21 91/107/21 92/108/21
f 93/109/22 94/110/22 95/111/22 96/112/22
g Cube.000_Cube.004_Cube.000_Cube.004_Material.005
usemtl Material.005
f 53/113/23 49/114/23 52/115/23 54/116/23
f 50/117/24 55/118/24 56/119/24 51/120/24
f 55/121/25 53/122/25 54/123/25 56/124/25
f 57/125/26 58/126/26 49/114/26 53/113/26
f 59/127/27 57/128/27 53/122/27 55/121/27
f 62/129/28 60/130/28 51/120/28 56/119/28
f 63/131/29 59/132/29 55/118/29 50/117/29
f 61/133/30 64/134/30 54/116/30 52/115/30
f 64/135/31 62/136/31 56/124/31 54/123/31
f 65/137/32 66/138/32 67/139/32 68/140/32
f 69/141/23 65/142/23 68/143/23 70/144/23
f 66/145/33 71/146/33 72/147/33 67/148/33
f 71/149/25 69/150/25 70/151/25 72/152/25
f 73/153/34 74/154/34 65/142/34 69/141/34
f 75/155/35 73/156/35 69/150/35 71/149/35
f 76/157/36 77/158/36 68/140/36 67/139/36
f 78/159/37 76/160/37 67/148/37 72/147/37
f 74/161/38 79/162/38 66/138/38 65/137/38
f 79/163/39 75/164/39 71/146/39 66/145/39
f 77/165/40 80/166/40 70/144/40 68/143/40
f 80/167/41 78/168/41 72/152/41 70/151/41
f 97/169/25 98/170/25 99/171/25 100/172/25
f 101/173/23 97/174/23 100/175/23 102/176/23
f 98/177/42 103/178/42 104/179/42 99/180/42
f 103/181/32 101/182/32 102/183/32 104/184/32
f 105/185/30 106/186/30 97/174/30 101/173/30
f 107/187/43 105/188/43 101/182/43 103/181/43
f 108/189/44 109/190/45 100/172/46 99/171/46
f 110/191/47 108/192/47 99/180/47 104/179/47
f 106/193/48 111/194/49 98/170/31 97/169/31
f 111/195/50 107/196/50 103/178/50 98/177/50
f 109/197/26 112/198/26 102/176/26 100/175/26
f 112/199/51 110/200/51 104/184/51 102/183/51
f 111/194/49 106/193/48 109/201/45 108/202/44
f 113/203/32 114/204/32 115/205/32 116/206/32
f 118/207/52 119/208/53 116/206/43 115/205/43
f 117/209/54 120/210/55 114/204/51 113/203/51
f 120/210/55 117/209/54 119/211/53 118/212/52
