# Blender v2.78 (sub 0) OBJ File: ''
# www.blender.org
mtllib hotel door.mtl
o Plane.001_Plane.003
v 0.092431 1.221903 1.395542
v 0.092431 -1.324604 1.395542
v 0.026201 1.221903 1.395542
v 0.026201 -1.324604 1.395542
v 0.067171 0.301328 0.254888
v 0.067171 -0.360679 0.254888
v 0.067171 0.301328 0.118880
v 0.067171 -0.360679 0.118880
v 0.114717 0.301328 0.118880
v 0.114717 0.301328 0.254888
v 0.114718 -0.360679 0.254888
v 0.114718 -0.360679 0.118880
v 0.067171 0.158620 0.254888
v 0.067171 0.158620 0.118880
v 0.114717 0.158620 0.254888
v 0.114717 0.158620 0.118880
v 0.067171 0.195316 0.118880
v 0.114717 0.195316 0.118880
v 0.067171 0.195316 0.254888
v 0.114717 0.195316 0.254888
v 0.067171 -0.215989 0.254888
v 0.114718 -0.215989 0.254888
v 0.067171 -0.215989 0.118880
v 0.114718 -0.215989 0.118880
v 0.067171 -0.184107 0.118880
v 0.114718 -0.184107 0.118880
v 0.067171 -0.184107 0.254888
v 0.114718 -0.184107 0.254888
v 0.067171 0.301328 0.210200
v 0.067171 -0.360679 0.210200
v 0.114717 0.301328 0.210200
v 0.114718 -0.360679 0.210200
v 0.114717 0.158620 0.210200
v 0.114717 0.195316 0.210200
v 0.114718 -0.215989 0.210200
v 0.114718 -0.184107 0.210200
v 0.067171 -0.360679 0.176873
v 0.114718 -0.360679 0.176873
v 0.114717 0.158620 0.176873
v 0.114717 0.195316 0.176873
v 0.114718 -0.215989 0.176873
v 0.114718 -0.184107 0.176873
v 0.067171 0.301328 0.176873
v 0.114717 0.301328 0.176873
v 0.204777 -0.215989 0.210200
v 0.204777 -0.184107 0.210200
v 0.204777 0.158620 0.210200
v 0.204777 0.195316 0.210200
v 0.204777 0.158620 0.176873
v 0.204777 0.195316 0.176873
v 0.204777 -0.215989 0.176873
v 0.204777 -0.184107 0.176873
v 0.180117 0.361292 0.215524
v 0.180117 -0.379601 0.215524
v 0.180117 0.361292 0.165045
v 0.180117 -0.379601 0.165045
v 0.259747 -0.379601 0.215524
v 0.259747 0.361292 0.215524
v 0.259747 0.361292 0.165045
v 0.259747 -0.379601 0.165045
v 0.092431 1.221903 -1.395542
v 0.092431 -1.324604 -1.395542
v 0.092431 1.221903 0.000000
v 0.092431 -1.324604 0.000000
v 0.026201 1.221903 -1.395542
v 0.026201 -1.324604 -1.395542
v 0.026201 1.221903 0.000000
v 0.026201 -1.324604 0.000000
v 0.067171 0.301328 -0.254888
v 0.067171 -0.360679 -0.254888
v 0.067171 0.301328 -0.118880
v 0.067171 -0.360679 -0.118880
v 0.114717 0.301328 -0.118880
v 0.114717 0.301328 -0.254888
v 0.114718 -0.360679 -0.254888
v 0.114718 -0.360679 -0.118880
v 0.067171 0.158620 -0.254888
v 0.067171 0.158620 -0.118880
v 0.114717 0.158620 -0.254888
v 0.114717 0.158620 -0.118880
v 0.067171 0.195316 -0.118880
v 0.114717 0.195316 -0.118880
v 0.067171 0.195316 -0.254888
v 0.114717 0.195316 -0.254888
v 0.067171 -0.215989 -0.254888
v 0.114718 -0.215989 -0.254888
v 0.067171 -0.215989 -0.118880
v 0.114718 -0.215989 -0.118880
v 0.067171 -0.184107 -0.118880
v 0.114718 -0.184107 -0.118880
v 0.067171 -0.184107 -0.254888
v 0.114718 -0.184107 -0.254888
v 0.067171 0.301328 -0.210200
v 0.067171 -0.360679 -0.210200
v 0.114717 0.301328 -0.210200
v 0.114718 -0.360679 -0.210200
v 0.114717 0.158620 -0.210200
v 0.114717 0.195316 -0.210200
v 0.114718 -0.215989 -0.210200
v 0.114718 -0.184107 -0.210200
v 0.067171 -0.360679 -0.176873
v 0.114718 -0.360679 -0.176873
v 0.114717 0.158620 -0.176873
v 0.114717 0.195316 -0.176873
v 0.114718 -0.215989 -0.176873
v 0.114718 -0.184107 -0.176873
v 0.067171 0.301328 -0.176873
v 0.114717 0.301328 -0.176873
v 0.204777 -0.215989 -0.210200
v 0.204777 -0.184107 -0.210200
v 0.204777 0.158620 -0.210200
v 0.204777 0.195316 -0.210200
v 0.204777 0.158620 -0.176873
v 0.204777 0.195316 -0.176873
v 0.204777 -0.215989 -0.176873
v 0.204777 -0.184107 -0.176873
v 0.180117 0.361292 -0.215524
v 0.180117 -0.379601 -0.215524
v 0.180117 0.361292 -0.165045
v 0.180117 -0.379601 -0.165045
v 0.259747 -0.379601 -0.215524
v 0.259747 0.361292 -0.215524
v 0.259747 0.361292 -0.165045
v 0.259747 -0.379601 -0.165045
vt 0.0002 0.0002
vt 0.8502 0.0002
vt 0.8502 0.4660
vt 0.0002 0.4660
vt 0.0002 0.9322
vt 0.0002 0.4663
vt 0.8502 0.4663
vt 0.8502 0.9322
vt 0.4663 0.9777
vt 0.9322 0.9777
vt 0.9322 0.9998
vt 0.4663 0.9998
vt 0.8502 0.9549
vt 0.0002 0.9546
vt 0.0002 0.9325
vt 0.8502 0.9328
vt 0.4660 0.9998
vt 0.0002 0.9998
vt 0.0002 0.9777
vt 0.4660 0.9777
vt 0.0001 0.2207
vt 0.0682 0.2207
vt 0.0682 0.2629
vt 0.0001 0.2629
vt 0.1105 0.2207
vt 0.1105 0.2889
vt 0.0683 0.2889
vt 0.0683 0.2207
vt 0.0002 0.0002
vt 0.8502 0.0002
vt 0.0002 0.9322
vt 0.8502 0.9322
vt 0.4663 0.9777
vt 0.4663 0.9998
vt 0.8502 0.9549
vt 0.8502 0.9328
vt 0.0002 0.9325
vt 0.0002 0.9546
vt 0.0002 0.9777
vt 0.0002 0.9998
vt 0.0002 0.9553
vt 0.0002 0.9774
vt 0.8502 0.9774
vt 0.8502 0.9553
vt 0.0001 0.2207
vt 0.0001 0.2629
vt 0.0682 0.2629
vt 0.0682 0.2207
vt 0.1105 0.2207
vt 0.0683 0.2207
vt 0.0683 0.2889
vt 0.1105 0.2889
vt 0.3580 0.9330
vt 0.4497 0.9330
vt 0.4497 0.9697
vt 0.3580 0.9697
vt 0.4798 0.9330
vt 0.4798 0.9697
vt 0.0001 0.9119
vt 0.0001 0.8836
vt 0.0303 0.8836
vt 0.0303 0.9119
vt 0.0974 0.9999
vt 0.0303 0.9999
vt 0.0303 0.9697
vt 0.0974 0.9697
vt 0.3580 0.8534
vt 0.4497 0.8534
vt 0.4497 0.8836
vt 0.3580 0.8836
vt 0.0974 0.8534
vt 0.1207 0.8534
vt 0.1207 0.8836
vt 0.0974 0.8836
vt 0.3378 0.9999
vt 0.1207 0.9999
vt 0.1207 0.9697
vt 0.3378 0.9697
vt 0.0974 0.9330
vt 0.1207 0.9330
vt 0.0303 0.9330
vt 0.0303 0.8534
vt 0.4497 0.9999
vt 0.3580 0.9999
vt 0.3378 0.8534
vt 0.3378 0.8836
vt 0.3378 0.9330
vt 0.3378 0.9119
vt 0.1207 0.9119
vt 0.3580 0.9119
vt 0.0974 0.9119
vt 0.0001 0.9330
vt 0.4798 0.8836
vt 0.4798 0.9119
vt 0.4497 0.9119
vt 0.0001 0.9697
vt 0.4801 0.8534
vt 0.5012 0.8534
vt 0.5012 0.9105
vt 0.4801 0.9105
vt 0.5893 0.8534
vt 0.6104 0.8534
vt 0.6104 0.9105
vt 0.5893 0.9105
vt 0.5456 0.8534
vt 0.5688 0.8534
vt 0.5688 0.9105
vt 0.5456 0.9105
vt 0.6306 0.8534
vt 0.6517 0.8534
vt 0.6517 0.9105
vt 0.6306 0.9105
vt 0.5691 0.8534
vt 0.5691 0.9105
vt 0.5245 0.8534
vt 0.5245 0.9105
vt 0.0001 0.2206
vt 0.0001 0.1525
vt 0.9999 0.1525
vt 0.9999 0.2206
vt 0.0001 0.0422
vt 0.9999 0.0422
vt 0.9999 0.1103
vt 0.0001 0.1103
vt 0.0001 0.0001
vt 0.9999 0.0001
vt 0.3580 0.9330
vt 0.3580 0.9697
vt 0.4497 0.9697
vt 0.4497 0.9330
vt 0.4798 0.9330
vt 0.4798 0.9697
vt 0.0001 0.9119
vt 0.0303 0.9119
vt 0.0303 0.8836
vt 0.0001 0.8836
vt 0.0974 0.9999
vt 0.0974 0.9697
vt 0.0303 0.9697
vt 0.0303 0.9999
vt 0.3580 0.8534
vt 0.3580 0.8836
vt 0.4497 0.8836
vt 0.4497 0.8534
vt 0.0974 0.8534
vt 0.0974 0.8836
vt 0.1207 0.8836
vt 0.1207 0.8534
vt 0.3378 0.9999
vt 0.3378 0.9697
vt 0.1207 0.9697
vt 0.1207 0.9999
vt 0.0974 0.9330
vt 0.1207 0.9330
vt 0.0303 0.9330
vt 0.0303 0.8534
vt 0.4497 0.9999
vt 0.3580 0.9999
vt 0.3378 0.8534
vt 0.3378 0.8836
vt 0.3378 0.9330
vt 0.1207 0.9119
vt 0.3378 0.9119
vt 0.3580 0.9119
vt 0.0974 0.9119
vt 0.0001 0.9330
vt 0.4798 0.8836
vt 0.4497 0.9119
vt 0.4798 0.9119
vt 0.0001 0.9697
vt 0.4801 0.8534
vt 0.4801 0.9105
vt 0.5012 0.9105
vt 0.5012 0.8534
vt 0.5893 0.8534
vt 0.5893 0.9105
vt 0.6104 0.9105
vt 0.6104 0.8534
vt 0.5456 0.8534
vt 0.5456 0.9105
vt 0.5688 0.9105
vt 0.5688 0.8534
vt 0.6306 0.8534
vt 0.6306 0.9105
vt 0.6517 0.9105
vt 0.6517 0.8534
vt 0.5691 0.8534
vt 0.5691 0.9105
vt 0.5245 0.8534
vt 0.5245 0.9105
vt 0.0001 0.2206
vt 0.9999 0.2206
vt 0.9999 0.1525
vt 0.0001 0.1525
vt 0.0001 0.0422
vt 0.0001 0.1103
vt 0.9999 0.1103
vt 0.9999 0.0422
vt 0.0001 0.0001
vt 0.9999 0.0001
vn 1.0000 0.0000 0.0000
vn -1.0000 -0.0000 0.0000
vn 0.0000 1.0000 0.0000
vn 0.0000 0.0000 1.0000
vn 0.0000 -1.0000 0.0000
vn 0.0000 0.0000 -1.0000
vn 0.9045 -0.3015 -0.3015
vn 0.7071 -0.7071 0.0000
vn 0.5773 -0.5773 -0.5773
vn 0.7071 0.0000 -0.7071
vn 0.0000 -0.7071 -0.7071
vn 0.0000 0.7071 0.7071
vn 0.5773 0.5773 0.5773
vn 0.7071 0.7071 0.0000
vn 0.0000 0.7071 -0.7071
vn 0.5773 0.5773 -0.5773
vn 0.0000 -0.7071 0.7071
vn 0.5773 -0.5773 0.5773
vn 0.7071 0.0000 0.7071
vn 0.9045 0.3015 -0.3015
vn 0.9045 0.3015 0.3015
vn 0.9045 -0.3015 0.3015
vn -0.5773 0.5773 0.5773
vn -0.5773 0.5773 -0.5773
vn -0.5773 -0.5773 -0.5773
vn -0.5773 -0.5773 0.5773
usemtl Material.003
s off
f 1/1/1 2/2/1 64/3/1 63/4/1
f 3/5/2 67/6/2 68/7/2 4/8/2
f 1/9/3 63/10/3 67/11/3 3/12/3
f 2/13/4 1/14/4 3/15/4 4/16/4
f 64/17/5 2/18/5 4/19/5 68/20/5
f 54/21/5 56/22/5 60/23/5 57/24/5
f 55/25/3 53/26/3 58/27/3 59/28/3
f 61/29/1 63/4/1 64/3/1 62/30/1
f 65/31/2 66/32/2 68/7/2 67/6/2
f 61/33/3 65/34/3 67/11/3 63/10/3
f 62/35/6 66/36/6 65/37/6 61/38/6
f 64/17/5 68/20/5 66/39/5 62/40/5
f 63/41/4 67/42/4 68/43/4 64/44/4
f 118/45/5 121/46/5 124/47/5 120/48/5
f 119/49/3 123/50/3 122/51/3 117/52/3
usemtl Material.004
s 1
f 41/53/7 38/54/8 12/55/9 24/56/10
f 37/57/5 8/58/11 12/55/9 38/54/8
f 29/59/3 5/60/12 10/61/13 31/62/14
f 17/63/6 7/64/15 9/65/16 18/66/10
f 21/67/4 6/68/17 11/69/18 22/70/19
f 19/71/4 13/72/4 15/73/19 20/74/19
f 25/75/6 14/76/6 16/77/10 26/78/10
f 40/79/20 39/80/7 16/77/10 18/66/10
f 44/81/14 40/79/20 18/66/10 9/65/16
f 5/82/12 19/71/4 20/74/19 10/61/13
f 14/76/6 17/63/6 18/66/10 16/77/10
f 8/83/11 23/84/6 24/56/10 12/55/9
f 27/85/4 21/67/4 22/70/19 28/86/19
f 42/87/20 41/53/7 24/56/10 26/78/10
f 39/80/7 42/87/20 26/78/10 16/77/10
f 13/72/4 27/85/4 28/86/19 15/73/19
f 23/84/6 25/75/6 26/78/10 24/56/10
f 15/73/19 28/86/19 36/88/21 33/89/22
f 28/86/19 22/70/19 35/90/22 36/88/21
f 10/61/13 20/74/19 34/91/21 31/62/14
f 20/74/19 15/73/19 33/89/22 34/91/21
f 43/92/3 29/59/3 31/62/14 44/81/14
f 6/93/17 30/94/5 32/95/8 11/69/18
f 22/70/19 11/69/18 32/95/8 35/90/22
f 7/96/15 43/92/3 44/81/14 9/65/16
f 33/89/22 36/88/21 42/87/20 39/80/7
f 33/97/22 39/98/7 49/99/11 47/100/17
f 31/62/14 34/91/21 40/79/20 44/81/14
f 35/101/22 41/102/7 51/103/11 45/104/17
f 30/94/5 37/57/5 38/54/8 32/95/8
f 35/90/22 32/95/8 38/54/8 41/53/7
f 34/105/21 33/106/22 47/107/17 48/108/12
f 42/109/20 36/110/21 46/111/12 52/112/15
f 36/113/21 35/101/22 45/104/17 46/114/12
f 40/115/20 34/105/21 48/108/12 50/116/15
f 39/98/7 40/115/20 50/116/15 49/99/11
f 41/102/7 42/109/20 52/112/15 51/103/11
f 53/117/23 55/118/24 56/119/25 54/120/26
f 58/121/13 57/122/18 60/123/9 59/124/16
f 53/125/23 54/126/26 57/122/18 58/121/13
f 56/119/25 55/118/24 59/124/16 60/123/9
f 105/127/22 88/128/19 76/129/18 102/130/8
f 101/131/5 102/130/8 76/129/18 72/132/17
f 93/133/3 95/134/14 74/135/16 69/136/15
f 81/137/4 82/138/19 73/139/13 71/140/12
f 85/141/6 86/142/10 75/143/9 70/144/11
f 83/145/6 84/146/10 79/147/10 77/148/6
f 89/149/4 90/150/19 80/151/19 78/152/4
f 104/153/21 82/138/19 80/151/19 103/154/22
f 108/155/14 73/139/13 82/138/19 104/153/21
f 69/156/15 74/135/16 84/146/10 83/145/6
f 78/152/4 80/151/19 82/138/19 81/137/4
f 72/157/17 76/129/18 88/128/19 87/158/4
f 91/159/6 92/160/10 86/142/10 85/141/6
f 106/161/21 90/150/19 88/128/19 105/127/22
f 103/154/22 80/151/19 90/150/19 106/161/21
f 77/148/6 79/147/10 92/160/10 91/159/6
f 87/158/4 88/128/19 90/150/19 89/149/4
f 79/147/10 97/162/7 100/163/20 92/160/10
f 92/160/10 100/163/20 99/164/7 86/142/10
f 74/135/16 95/134/14 98/165/20 84/146/10
f 84/146/10 98/165/20 97/162/7 79/147/10
f 107/166/3 108/155/14 95/134/14 93/133/3
f 70/167/11 75/143/9 96/168/8 94/169/5
f 86/142/10 99/164/7 96/168/8 75/143/9
f 71/170/12 73/139/13 108/155/14 107/166/3
f 97/162/7 103/154/22 106/161/21 100/163/20
f 97/171/7 111/172/11 113/173/17 103/174/22
f 95/134/14 108/155/14 104/153/21 98/165/20
f 99/175/7 109/176/11 115/177/17 105/178/22
f 94/169/5 96/168/8 102/130/8 101/131/5
f 99/164/7 105/127/22 102/130/8 96/168/8
f 98/179/20 112/180/15 111/181/11 97/182/7
f 106/183/21 116/184/12 110/185/15 100/186/20
f 100/187/20 110/188/15 109/176/11 99/175/7
f 104/189/21 114/190/12 112/180/15 98/179/20
f 103/174/22 113/173/17 114/190/12 104/189/21
f 105/178/22 115/177/17 116/184/12 106/183/21
f 117/191/24 118/192/25 120/193/26 119/194/23
f 122/195/16 123/196/13 124/197/18 121/198/9
f 117/199/24 122/195/16 121/198/9 118/200/25
f 120/193/26 124/197/18 123/196/13 119/194/23
o Cube.005_Cube.012
v 0.287496 -1.345141 1.486616
v 0.287499 1.345140 1.486619
v 0.287496 -1.345141 -1.486619
v 0.287499 1.345140 -1.486616
v -0.287499 -1.345141 1.486616
v -0.287496 1.345140 1.486619
v -0.287499 -1.345141 -1.486619
v -0.287496 1.345140 -1.486616
v -0.195089 -1.331980 -1.394983
v -0.195086 1.229278 -1.394981
v -0.195086 1.229278 1.394983
v -0.195089 -1.331980 1.394980
v 0.227173 -1.331980 -1.394983
v 0.227176 1.229278 1.394983
v 0.227176 1.229278 -1.394981
v 0.227173 -1.331980 1.394980
vt -0.6629 0.6098
vt 1.6769 0.6098
vt 1.6898 0.7718
vt -0.6500 0.7718
vt -0.0031 0.5418
vt 1.0425 0.5418
vt 1.0425 0.6361
vt -0.0031 0.6361
vt -1.0904 0.7158
vt 1.8450 0.7158
vt 1.8450 0.9846
vt -1.0904 0.9846
vt -1.0904 0.3839
vt 1.8450 0.3839
vt -0.0031 0.4424
vt 1.0425 0.4424
vt -0.6500 0.3984
vt 1.6898 0.3984
vt -0.6500 0.2397
vt 1.6898 0.2397
vt -0.0031 0.3482
vt 1.0425 0.3482
vt -1.0904 0.0782
vt 1.8450 0.0782
vn -0.7041 -0.0000 0.7101
vn -0.7041 0.0000 -0.7101
vn -0.7818 -0.6235 0.0000
vn 0.0000 -1.0000 0.0000
vn 0.0000 0.0000 -1.0000
vn 0.0000 -0.0000 1.0000
vn 0.8353 -0.0000 0.5498
vn 0.8353 -0.0000 -0.5498
vn 0.8870 -0.4618 0.0000
usemtl Material
s off
f 133/201/27 134/202/27 132/203/27 131/204/27
f 135/205/28 136/206/28 129/207/28 130/208/28
f 134/209/29 135/210/29 130/211/29 132/212/29
f 139/213/30 138/214/30 135/210/30 134/209/30
f 138/215/31 140/216/31 136/206/31 135/205/31
f 137/217/32 139/218/32 134/202/32 133/201/32
f 127/219/33 128/220/33 139/218/33 137/217/33
f 126/221/34 125/222/34 140/216/34 138/215/34
f 128/223/35 126/224/35 138/214/35 139/213/35
