# Blender v2.78 (sub 0) OBJ File: 'Buildings03.blend'
# www.blender.org
mtllib Buildings02_floor.mtl
o Cube.002
v 4.864197 2.973670 -10.000000
v 10.000000 2.973670 -10.000000
v 10.000000 1.209406 -10.000000
v 4.864197 1.209406 -10.000000
v 10.000000 -0.012816 -10.000000
v 10.000000 3.987184 -10.000000
v 4.864197 3.987184 -10.000000
v 4.864197 -0.012816 -10.000000
v 8.469135 -0.012816 -10.000000
v 3.321401 2.973670 -10.000000
v 8.469135 3.987184 -10.000000
v 3.321401 1.209406 -10.000000
v 3.309470 -0.012816 -10.000000
v 8.469135 1.209406 -10.000000
v 8.469135 2.973670 -10.000000
v 3.321401 3.987184 -10.000000
v 4.864197 2.973670 -9.663254
v 4.864197 1.209406 -9.663254
v 8.469135 2.973670 -9.663254
v 8.469135 1.209406 -9.663254
v -1.826333 2.973670 -10.000000
v -1.826333 1.209406 -10.000000
v -1.826333 3.987184 -10.000000
v -1.826333 -0.012816 -10.000000
v 1.778606 -0.012816 -10.000000
v -3.348067 2.973670 -10.000000
v 1.778606 3.987184 -10.000000
v -3.357197 1.209406 -10.000000
v -3.348067 -0.012816 -10.000000
v 1.778606 1.209406 -10.000000
v 1.778606 2.973670 -10.000000
v -3.348067 3.987184 -10.000000
v -1.826333 2.973670 -9.663254
v -1.826333 1.209406 -9.663254
v 1.778606 2.973670 -9.663254
v 1.778606 1.209406 -9.663254
v -8.474739 2.973670 -10.000000
v -3.338936 1.209406 -10.000000
v -8.474739 1.209406 -10.000000
v -8.474739 3.987184 -10.000000
v -8.474739 -0.012816 -10.000000
v -4.869801 -0.012816 -10.000000
v -10.005603 2.973670 -10.000000
v -4.869801 3.987184 -10.000000
v -10.005603 1.209406 -10.000000
v -10.005603 -0.012816 -10.000000
v -4.869801 1.209406 -10.000000
v -4.869801 2.973670 -10.000000
v -10.005603 3.987184 -10.000000
v -8.474739 2.973670 -9.663254
v -8.474739 1.209406 -9.663254
v -4.869801 2.973670 -9.663254
v -4.869801 1.209406 -9.663254
v 4.864198 2.973670 10.000000
v 10.000000 2.973670 10.000000
v 10.000000 1.209406 10.000000
v 4.864198 1.209406 10.000000
v 10.000000 -0.012816 10.000000
v 10.000000 3.987184 10.000000
v 4.864198 3.987184 10.000000
v 4.864198 -0.012816 10.000000
v 8.469135 -0.012816 10.000000
v 3.321402 2.973670 10.000000
v 8.469135 3.987184 10.000000
v 3.321402 1.209406 10.000000
v 3.309471 -0.012816 10.000000
v 8.469135 1.209406 10.000000
v 8.469135 2.973670 10.000000
v 3.321402 3.987184 10.000000
v 4.864198 2.973670 9.663254
v 4.864198 1.209406 9.663254
v 8.469135 2.973670 9.663254
v 8.469135 1.209406 9.663254
v -1.826332 2.973670 10.000000
v -1.826332 1.209406 10.000000
v -1.826332 3.987184 10.000000
v -1.826332 -0.012816 10.000000
v 1.778607 -0.012816 10.000000
v -3.348066 2.973670 10.000000
v 1.778607 3.987184 10.000000
v -3.357196 1.209406 10.000000
v -3.348066 -0.012816 10.000000
v 1.778607 1.209406 10.000000
v 1.778607 2.973670 10.000000
v -3.348066 3.987184 10.000000
v -1.826332 2.973670 9.663254
v -1.826332 1.209406 9.663254
v 1.778607 2.973670 9.663254
v 1.778607 1.209406 9.663254
v -8.474739 2.973670 10.000000
v -3.338935 1.209406 10.000000
v -8.474739 1.209406 10.000000
v -8.474739 3.987184 10.000000
v -8.474739 -0.012816 10.000000
v -4.869800 -0.012816 10.000000
v -10.005603 2.973670 10.000000
v -4.869800 3.987184 10.000000
v -10.005603 1.209406 10.000000
v -10.005603 -0.012816 10.000000
v -4.869800 1.209406 10.000000
v -4.869800 2.973670 10.000000
v -10.005603 3.987184 10.000000
v -8.474739 2.973670 9.663254
v -8.474739 1.209406 9.663254
v -4.869800 2.973670 9.663254
v -4.869800 1.209406 9.663254
v 10.000000 2.973670 4.864197
v 9.999999 2.973670 10.000000
v 9.999999 1.209406 10.000000
v 10.000000 1.209406 4.864197
v 9.999999 -0.012816 10.000000
v 9.999999 3.987184 10.000000
v 10.000000 3.987184 4.864197
v 10.000000 -0.012816 4.864197
v 9.999999 -0.012816 8.469136
v 10.000000 2.973670 3.321402
v 9.999999 3.987184 8.469136
v 10.000000 1.209406 3.321402
v 10.000000 -0.012816 3.309470
v 9.999999 1.209406 8.469136
v 9.999999 2.973670 8.469136
v 10.000000 3.987184 3.321402
v 9.663254 2.973670 4.864197
v 9.663254 1.209406 4.864197
v 9.663254 2.973670 8.469136
v 9.663254 1.209406 8.469136
v 10.000000 2.973670 -1.826332
v 10.000000 1.209406 -1.826332
v 10.000000 3.987184 -1.826332
v 10.000000 -0.012816 -1.826332
v 10.000000 -0.012816 1.778606
v 10.000000 2.973670 -3.348066
v 10.000000 3.987184 1.778606
v 10.000000 1.209406 -3.357197
v 10.000000 -0.012816 -3.348066
v 10.000000 1.209406 1.778606
v 10.000000 2.973670 1.778606
v 10.000000 3.987184 -3.348066
v 9.663254 2.973670 -1.826332
v 9.663254 1.209406 -1.826332
v 9.663254 2.973670 1.778606
v 9.663254 1.209406 1.778606
v 10.000000 2.973670 -8.474738
v 10.000000 1.209406 -3.338936
v 10.000000 1.209406 -8.474738
v 10.000000 3.987184 -8.474738
v 10.000000 -0.012816 -8.474738
v 10.000000 -0.012816 -4.869801
v 10.000000 2.973670 -10.005603
v 10.000000 3.987184 -4.869801
v 10.000000 1.209406 -10.005603
v 10.000000 -0.012816 -10.005603
v 10.000000 1.209406 -4.869801
v 10.000000 2.973670 -4.869801
v 10.000000 3.987184 -10.005603
v 9.663255 2.973670 -8.474738
v 9.663255 1.209406 -8.474738
v 9.663254 2.973670 -4.869801
v 9.663254 1.209406 -4.869801
v -10.000000 2.973670 4.864198
v -10.000000 2.973670 9.999999
v -10.000000 1.209406 9.999999
v -10.000000 1.209406 4.864198
v -10.000000 -0.012816 9.999999
v -10.000000 3.987184 9.999999
v -10.000000 3.987184 4.864198
v -10.000000 -0.012816 4.864198
v -10.000000 -0.012816 8.469135
v -10.000000 2.973670 3.321402
v -10.000000 3.987184 8.469135
v -10.000000 1.209406 3.321402
v -10.000000 -0.012816 3.309471
v -10.000000 1.209406 8.469135
v -10.000000 2.973670 8.469135
v -10.000000 3.987184 3.321402
v -9.663254 2.973670 4.864198
v -9.663254 1.209406 4.864198
v -9.663255 2.973670 8.469135
v -9.663255 1.209406 8.469135
v -10.000000 2.973670 -1.826332
v -10.000000 1.209406 -1.826332
v -10.000000 3.987184 -1.826332
v -10.000000 -0.012816 -1.826332
v -10.000000 -0.012816 1.778606
v -10.000000 2.973670 -3.348066
v -10.000000 3.987184 1.778606
v -10.000000 1.209406 -3.357196
v -10.000000 -0.012816 -3.348066
v -10.000000 1.209406 1.778606
v -10.000000 2.973670 1.778606
v -10.000000 3.987184 -3.348066
v -9.663254 2.973670 -1.826332
v -9.663254 1.209406 -1.826332
v -9.663254 2.973670 1.778606
v -9.663254 1.209406 1.778606
v -9.999999 2.973670 -8.474739
v -10.000000 1.209406 -3.338936
v -9.999999 1.209406 -8.474739
v -9.999999 3.987184 -8.474739
v -9.999999 -0.012816 -8.474739
v -10.000000 -0.012816 -4.869800
v -9.999999 2.973670 -10.005603
v -10.000000 3.987184 -4.869800
v -9.999999 1.209406 -10.005603
v -9.999999 -0.012816 -10.005603
v -10.000000 1.209406 -4.869800
v -10.000000 2.973670 -4.869800
v -9.999999 3.987184 -10.005603
v -9.663254 2.973670 -8.474739
v -9.663254 1.209406 -8.474739
v -9.663254 2.973670 -4.869800
v -9.663254 1.209406 -4.869800
vt -0.5698 0.1112
vt -0.5698 0.9932
vt -1.1953 0.9932
vt -1.1953 0.1112
vt -0.5698 1.4999
vt -1.1953 1.4999
vt -0.5698 -0.4999
vt -1.1953 -0.4999
vt 1.5288 0.1112
vt 1.5288 0.9932
vt 0.9032 0.9932
vt 0.9032 0.1112
vt 1.5288 1.4999
vt 0.9032 1.4999
vt 1.5288 -0.4999
vt 0.9032 -0.4999
vt 0.0382 0.0001
vt 0.0382 0.9999
vt 0.0001 0.9999
vt 0.0001 0.0001
vt -0.5698 0.1112
vt -0.5698 0.9932
vt -1.1953 0.9932
vt -1.1953 0.1112
vt 0.0384 0.9999
vt 0.0384 0.0001
vt 0.0765 0.0001
vt 0.0765 0.9999
vt 0.4853 0.0382
vt 0.0767 0.0382
vt 0.0767 0.0001
vt 0.4853 0.0001
vt 0.0767 0.0384
vt 0.4853 0.0384
vt 0.4853 0.0765
vt 0.0767 0.0765
vt -0.5698 1.4999
vt -1.1953 1.4999
vt -0.5698 -0.4999
vt -1.1953 -0.4999
vt 1.5288 0.1112
vt 1.5288 0.9932
vt 0.9032 0.9932
vt 0.9032 0.1112
vt 1.5288 1.4999
vt 0.9032 1.4999
vt 1.5288 -0.4999
vt 0.9032 -0.4999
vt 0.0382 0.0001
vt 0.0382 0.9999
vt 0.0001 0.9999
vt 0.0001 0.0001
vt 0.0384 0.9999
vt 0.0384 0.0001
vt 0.0765 0.0001
vt 0.0765 0.9999
vt 0.4853 0.0382
vt 0.0767 0.0382
vt 0.0767 0.0001
vt 0.4853 0.0001
vt 0.0767 0.0384
vt 0.4853 0.0384
vt 0.4853 0.0765
vt 0.0767 0.0765
vt -0.5698 0.1112
vt -0.5698 0.9932
vt -1.1953 0.9932
vt -1.1953 0.1112
vt -0.5698 1.4999
vt -1.1953 1.4999
vt -0.5698 -0.4999
vt -1.1953 -0.4999
vt 1.5288 0.1112
vt 1.5288 0.9932
vt 0.9032 0.9932
vt 0.9032 0.1112
vt 1.5288 1.4999
vt 0.9032 1.4999
vt 1.5288 -0.4999
vt 0.9032 -0.4999
vt 0.0382 0.0001
vt 0.0382 0.9999
vt 0.0001 0.9999
vt 0.0001 0.0001
vt 0.0384 0.9999
vt 0.0384 0.0001
vt 0.0765 0.0001
vt 0.0765 0.9999
vt 0.4853 0.0382
vt 0.0767 0.0382
vt 0.0767 0.0001
vt 0.4853 0.0001
vt 0.0767 0.0384
vt 0.4853 0.0384
vt 0.4853 0.0765
vt 0.0767 0.0765
vt -0.5698 0.1112
vt -1.1953 0.1112
vt -1.1953 0.9932
vt -0.5698 0.9932
vt -1.1953 1.4999
vt -0.5698 1.4999
vt -0.5698 -0.4999
vt -1.1953 -0.4999
vt 1.5288 0.1112
vt 0.9032 0.1112
vt 0.9032 0.9932
vt 1.5288 0.9932
vt 0.9032 1.4999
vt 1.5288 1.4999
vt 1.5288 -0.4999
vt 0.9032 -0.4999
vt 0.0382 0.0001
vt 0.0001 0.0001
vt 0.0001 0.9999
vt 0.0382 0.9999
vt -0.5698 0.1112
vt -1.1953 0.1112
vt -1.1953 0.9932
vt -0.5698 0.9932
vt 0.0384 0.9999
vt 0.0765 0.9999
vt 0.0765 0.0001
vt 0.0384 0.0001
vt 0.4853 0.0382
vt 0.4853 0.0001
vt 0.0767 0.0001
vt 0.0767 0.0382
vt 0.0767 0.0384
vt 0.0767 0.0765
vt 0.4853 0.0765
vt 0.4853 0.0384
vt -1.1953 1.4999
vt -0.5698 1.4999
vt -0.5698 -0.4999
vt -1.1953 -0.4999
vt 1.5288 0.1112
vt 0.9032 0.1112
vt 0.9032 0.9932
vt 1.5288 0.9932
vt 0.9032 1.4999
vt 1.5288 1.4999
vt 1.5288 -0.4999
vt 0.9032 -0.4999
vt 0.0382 0.0001
vt 0.0001 0.0001
vt 0.0001 0.9999
vt 0.0382 0.9999
vt 0.0384 0.9999
vt 0.0765 0.9999
vt 0.0765 0.0001
vt 0.0384 0.0001
vt 0.4853 0.0382
vt 0.4853 0.0001
vt 0.0767 0.0001
vt 0.0767 0.0382
vt 0.0767 0.0384
vt 0.0767 0.0765
vt 0.4853 0.0765
vt 0.4853 0.0384
vt -0.5698 0.1112
vt -1.1953 0.1112
vt -1.1953 0.9932
vt -0.5698 0.9932
vt -1.1953 1.4999
vt -0.5698 1.4999
vt -0.5698 -0.4999
vt -1.1953 -0.4999
vt 1.5288 0.1112
vt 0.9032 0.1112
vt 0.9032 0.9932
vt 1.5288 0.9932
vt 0.9032 1.4999
vt 1.5288 1.4999
vt 1.5288 -0.4999
vt 0.9032 -0.4999
vt 0.0382 0.0001
vt 0.0001 0.0001
vt 0.0001 0.9999
vt 0.0382 0.9999
vt 0.0384 0.9999
vt 0.0765 0.9999
vt 0.0765 0.0001
vt 0.0384 0.0001
vt 0.4853 0.0382
vt 0.4853 0.0001
vt 0.0767 0.0001
vt 0.0767 0.0382
vt 0.0767 0.0384
vt 0.0767 0.0765
vt 0.4853 0.0765
vt 0.4853 0.0384
vt -0.5698 0.1112
vt -0.5698 0.9932
vt -1.1953 0.9932
vt -1.1953 0.1112
vt -0.5698 1.4999
vt -1.1953 1.4999
vt -0.5698 -0.4999
vt -1.1953 -0.4999
vt 1.5288 0.1112
vt 1.5288 0.9932
vt 0.9032 0.9932
vt 0.9032 0.1112
vt 1.5288 1.4999
vt 0.9032 1.4999
vt 1.5288 -0.4999
vt 0.9032 -0.4999
vt 0.0382 0.0001
vt 0.0382 0.9999
vt 0.0001 0.9999
vt 0.0001 0.0001
vt -0.5698 0.1112
vt -0.5698 0.9932
vt -1.1953 0.9932
vt -1.1953 0.1112
vt 0.0384 0.9999
vt 0.0384 0.0001
vt 0.0765 0.0001
vt 0.0765 0.9999
vt 0.4853 0.0382
vt 0.0767 0.0382
vt 0.0767 0.0001
vt 0.4853 0.0001
vt 0.0767 0.0384
vt 0.4853 0.0384
vt 0.4853 0.0765
vt 0.0767 0.0765
vt -0.5698 1.4999
vt -1.1953 1.4999
vt -0.5698 -0.4999
vt -1.1953 -0.4999
vt 1.5288 0.1112
vt 1.5288 0.9932
vt 0.9032 0.9932
vt 0.9032 0.1112
vt 1.5288 1.4999
vt 0.9032 1.4999
vt 1.5288 -0.4999
vt 0.9032 -0.4999
vt 0.0382 0.0001
vt 0.0382 0.9999
vt 0.0001 0.9999
vt 0.0001 0.0001
vt 0.0384 0.9999
vt 0.0384 0.0001
vt 0.0765 0.0001
vt 0.0765 0.9999
vt 0.4853 0.0382
vt 0.0767 0.0382
vt 0.0767 0.0001
vt 0.4853 0.0001
vt 0.0767 0.0384
vt 0.4853 0.0384
vt 0.4853 0.0765
vt 0.0767 0.0765
vt -0.5698 0.1112
vt -0.5698 0.9932
vt -1.1953 0.9932
vt -1.1953 0.1112
vt -0.5698 1.4999
vt -1.1953 1.4999
vt -0.5698 -0.4999
vt -1.1953 -0.4999
vt 1.5288 0.1112
vt 1.5288 0.9932
vt 0.9032 0.9932
vt 0.9032 0.1112
vt 1.5288 1.4999
vt 0.9032 1.4999
vt 1.5288 -0.4999
vt 0.9032 -0.4999
vt 0.0382 0.0001
vt 0.0382 0.9999
vt 0.0001 0.9999
vt 0.0001 0.0001
vt 0.0384 0.9999
vt 0.0384 0.0001
vt 0.0765 0.0001
vt 0.0765 0.9999
vt 0.4853 0.0382
vt 0.0767 0.0382
vt 0.0767 0.0001
vt 0.4853 0.0001
vt 0.0767 0.0384
vt 0.4853 0.0384
vt 0.4853 0.0765
vt 0.0767 0.0765
vt -0.5698 0.1112
vt -1.1953 0.1112
vt -1.1953 0.9932
vt -0.5698 0.9932
vt -1.1953 1.4999
vt -0.5698 1.4999
vt -0.5698 -0.4999
vt -1.1953 -0.4999
vt 1.5288 0.1112
vt 0.9032 0.1112
vt 0.9032 0.9932
vt 1.5288 0.9932
vt 0.9032 1.4999
vt 1.5288 1.4999
vt 1.5288 -0.4999
vt 0.9032 -0.4999
vt 0.0382 0.0001
vt 0.0001 0.0001
vt 0.0001 0.9999
vt 0.0382 0.9999
vt -0.5698 0.1112
vt -1.1953 0.1112
vt -1.1953 0.9932
vt -0.5698 0.9932
vt 0.0384 0.9999
vt 0.0765 0.9999
vt 0.0765 0.0001
vt 0.0384 0.0001
vt 0.4853 0.0382
vt 0.4853 0.0001
vt 0.0767 0.0001
vt 0.0767 0.0382
vt 0.0767 0.0384
vt 0.0767 0.0765
vt 0.4853 0.0765
vt 0.4853 0.0384
vt -1.1953 1.4999
vt -0.5698 1.4999
vt -0.5698 -0.4999
vt -1.1953 -0.4999
vt 1.5288 0.1112
vt 0.9032 0.1112
vt 0.9032 0.9932
vt 1.5288 0.9932
vt 0.9032 1.4999
vt 1.5288 1.4999
vt 1.5288 -0.4999
vt 0.9032 -0.4999
vt 0.0382 0.0001
vt 0.0001 0.0001
vt 0.0001 0.9999
vt 0.0382 0.9999
vt 0.0384 0.9999
vt 0.0765 0.9999
vt 0.0765 0.0001
vt 0.0384 0.0001
vt 0.4853 0.0382
vt 0.4853 0.0001
vt 0.0767 0.0001
vt 0.0767 0.0382
vt 0.0767 0.0384
vt 0.0767 0.0765
vt 0.4853 0.0765
vt 0.4853 0.0384
vt -0.5698 0.1112
vt -1.1953 0.1112
vt -1.1953 0.9932
vt -0.5698 0.9932
vt -1.1953 1.4999
vt -0.5698 1.4999
vt -0.5698 -0.4999
vt -1.1953 -0.4999
vt 1.5288 0.1112
vt 0.9032 0.1112
vt 0.9032 0.9932
vt 1.5288 0.9932
vt 0.9032 1.4999
vt 1.5288 1.4999
vt 1.5288 -0.4999
vt 0.9032 -0.4999
vt 0.0382 0.0001
vt 0.0001 0.0001
vt 0.0001 0.9999
vt 0.0382 0.9999
vt 0.0384 0.9999
vt 0.0765 0.9999
vt 0.0765 0.0001
vt 0.0384 0.0001
vt 0.4853 0.0382
vt 0.4853 0.0001
vt 0.0767 0.0001
vt 0.0767 0.0382
vt 0.0767 0.0384
vt 0.0767 0.0765
vt 0.4853 0.0765
vt 0.4853 0.0384
vn 0.0000 0.0000 -1.0000
vn 1.0000 0.0000 0.0000
vn -1.0000 0.0000 0.0000
vn 0.0000 -1.0000 0.0000
vn 0.0000 1.0000 0.0000
vn 0.0000 0.0000 1.0000
g Cube.002_Cube.002_None
usemtl None
s off
f 14/1/1 15/2/1 2/3/1 3/4/1
f 15/2/1 11/5/1 6/6/1 2/3/1
f 9/7/1 14/1/1 3/4/1 5/8/1
f 12/9/1 10/10/1 1/11/1 4/12/1
f 10/10/1 16/13/1 7/14/1 1/11/1
f 13/15/1 12/9/1 4/12/1 8/16/1
f 4/17/2 1/18/2 17/19/2 18/20/2
f 1/11/1 7/14/1 11/5/1 15/2/1
f 8/16/1 4/12/1 14/1/1 9/7/1
f 30/21/1 31/22/1 10/23/1 12/24/1
f 15/25/3 14/26/3 20/27/3 19/28/3
f 1/29/4 15/30/4 19/31/4 17/32/4
f 14/33/5 4/34/5 18/35/5 20/36/5
f 31/22/1 27/37/1 16/38/1 10/23/1
f 25/39/1 30/21/1 12/24/1 13/40/1
f 28/41/1 26/42/1 21/43/1 22/44/1
f 26/42/1 32/45/1 23/46/1 21/43/1
f 29/47/1 28/41/1 22/44/1 24/48/1
f 22/49/2 21/50/2 33/51/2 34/52/2
f 21/43/1 23/46/1 27/37/1 31/22/1
f 24/48/1 22/44/1 30/21/1 25/39/1
f 31/53/3 30/54/3 36/55/3 35/56/3
f 21/57/4 31/58/4 35/59/4 33/60/4
f 30/61/5 22/62/5 34/63/5 36/64/5
f 47/65/1 48/66/1 26/67/1 38/68/1
f 48/66/1 44/69/1 32/70/1 26/67/1
f 42/71/1 47/65/1 38/68/1 29/72/1
f 45/73/1 43/74/1 37/75/1 39/76/1
f 43/74/1 49/77/1 40/78/1 37/75/1
f 46/79/1 45/73/1 39/76/1 41/80/1
f 39/81/2 37/82/2 50/83/2 51/84/2
f 37/75/1 40/78/1 44/69/1 48/66/1
f 41/80/1 39/76/1 47/65/1 42/71/1
f 48/85/3 47/86/3 53/87/3 52/88/3
f 37/89/4 48/90/4 52/91/4 50/92/4
f 47/93/5 39/94/5 51/95/5 53/96/5
f 67/97/6 56/98/6 55/99/6 68/100/6
f 68/100/6 55/99/6 59/101/6 64/102/6
f 62/103/6 58/104/6 56/98/6 67/97/6
f 65/105/6 57/106/6 54/107/6 63/108/6
f 63/108/6 54/107/6 60/109/6 69/110/6
f 66/111/6 61/112/6 57/106/6 65/105/6
f 57/113/2 71/114/2 70/115/2 54/116/2
f 54/107/6 68/100/6 64/102/6 60/109/6
f 61/112/6 62/103/6 67/97/6 57/106/6
f 83/117/6 65/118/6 63/119/6 84/120/6
f 68/121/3 72/122/3 73/123/3 67/124/3
f 54/125/4 70/126/4 72/127/4 68/128/4
f 67/129/5 73/130/5 71/131/5 57/132/5
f 84/120/6 63/119/6 69/133/6 80/134/6
f 78/135/6 66/136/6 65/118/6 83/117/6
f 81/137/6 75/138/6 74/139/6 79/140/6
f 79/140/6 74/139/6 76/141/6 85/142/6
f 82/143/6 77/144/6 75/138/6 81/137/6
f 75/145/2 87/146/2 86/147/2 74/148/2
f 74/139/6 84/120/6 80/134/6 76/141/6
f 77/144/6 78/135/6 83/117/6 75/138/6
f 84/149/3 88/150/3 89/151/3 83/152/3
f 74/153/4 86/154/4 88/155/4 84/156/4
f 83/157/5 89/158/5 87/159/5 75/160/5
f 100/161/6 91/162/6 79/163/6 101/164/6
f 101/164/6 79/163/6 85/165/6 97/166/6
f 95/167/6 82/168/6 91/162/6 100/161/6
f 98/169/6 92/170/6 90/171/6 96/172/6
f 96/172/6 90/171/6 93/173/6 102/174/6
f 99/175/6 94/176/6 92/170/6 98/169/6
f 92/177/2 104/178/2 103/179/2 90/180/2
f 90/171/6 101/164/6 97/166/6 93/173/6
f 94/176/6 95/167/6 100/161/6 92/170/6
f 101/181/3 105/182/3 106/183/3 100/184/3
f 90/185/4 103/186/4 105/187/4 101/188/4
f 100/189/5 106/190/5 104/191/5 92/192/5
f 120/193/2 121/194/2 108/195/2 109/196/2
f 121/194/2 117/197/2 112/198/2 108/195/2
f 115/199/2 120/193/2 109/196/2 111/200/2
f 118/201/2 116/202/2 107/203/2 110/204/2
f 116/202/2 122/205/2 113/206/2 107/203/2
f 119/207/2 118/201/2 110/204/2 114/208/2
f 110/209/6 107/210/6 123/211/6 124/212/6
f 107/203/2 113/206/2 117/197/2 121/194/2
f 114/208/2 110/204/2 120/193/2 115/199/2
f 136/213/2 137/214/2 116/215/2 118/216/2
f 121/217/1 120/218/1 126/219/1 125/220/1
f 107/221/4 121/222/4 125/223/4 123/224/4
f 120/225/5 110/226/5 124/227/5 126/228/5
f 137/214/2 133/229/2 122/230/2 116/215/2
f 131/231/2 136/213/2 118/216/2 119/232/2
f 134/233/2 132/234/2 127/235/2 128/236/2
f 132/234/2 138/237/2 129/238/2 127/235/2
f 135/239/2 134/233/2 128/236/2 130/240/2
f 128/241/6 127/242/6 139/243/6 140/244/6
f 127/235/2 129/238/2 133/229/2 137/214/2
f 130/240/2 128/236/2 136/213/2 131/231/2
f 137/245/1 136/246/1 142/247/1 141/248/1
f 127/249/4 137/250/4 141/251/4 139/252/4
f 136/253/5 128/254/5 140/255/5 142/256/5
f 153/257/2 154/258/2 132/259/2 144/260/2
f 154/258/2 150/261/2 138/262/2 132/259/2
f 148/263/2 153/257/2 144/260/2 135/264/2
f 151/265/2 149/266/2 143/267/2 145/268/2
f 149/266/2 155/269/2 146/270/2 143/267/2
f 152/271/2 151/265/2 145/268/2 147/272/2
f 145/273/6 143/274/6 156/275/6 157/276/6
f 143/267/2 146/270/2 150/261/2 154/258/2
f 147/272/2 145/268/2 153/257/2 148/263/2
f 154/277/1 153/278/1 159/279/1 158/280/1
f 143/281/4 154/282/4 158/283/4 156/284/4
f 153/285/5 145/286/5 157/287/5 159/288/5
f 173/289/3 162/290/3 161/291/3 174/292/3
f 174/292/3 161/291/3 165/293/3 170/294/3
f 168/295/3 164/296/3 162/290/3 173/289/3
f 171/297/3 163/298/3 160/299/3 169/300/3
f 169/300/3 160/299/3 166/301/3 175/302/3
f 172/303/3 167/304/3 163/298/3 171/297/3
f 163/305/6 177/306/6 176/307/6 160/308/6
f 160/299/3 174/292/3 170/294/3 166/301/3
f 167/304/3 168/295/3 173/289/3 163/298/3
f 189/309/3 171/310/3 169/311/3 190/312/3
f 174/313/1 178/314/1 179/315/1 173/316/1
f 160/317/4 176/318/4 178/319/4 174/320/4
f 173/321/5 179/322/5 177/323/5 163/324/5
f 190/312/3 169/311/3 175/325/3 186/326/3
f 184/327/3 172/328/3 171/310/3 189/309/3
f 187/329/3 181/330/3 180/331/3 185/332/3
f 185/332/3 180/331/3 182/333/3 191/334/3
f 188/335/3 183/336/3 181/330/3 187/329/3
f 181/337/6 193/338/6 192/339/6 180/340/6
f 180/331/3 190/312/3 186/326/3 182/333/3
f 183/336/3 184/327/3 189/309/3 181/330/3
f 190/341/1 194/342/1 195/343/1 189/344/1
f 180/345/4 192/346/4 194/347/4 190/348/4
f 189/349/5 195/350/5 193/351/5 181/352/5
f 206/353/3 197/354/3 185/355/3 207/356/3
f 207/356/3 185/355/3 191/357/3 203/358/3
f 201/359/3 188/360/3 197/354/3 206/353/3
f 204/361/3 198/362/3 196/363/3 202/364/3
f 202/364/3 196/363/3 199/365/3 208/366/3
f 205/367/3 200/368/3 198/362/3 204/361/3
f 198/369/6 210/370/6 209/371/6 196/372/6
f 196/363/3 207/356/3 203/358/3 199/365/3
f 200/368/3 201/359/3 206/353/3 198/362/3
f 207/373/1 211/374/1 212/375/1 206/376/1
f 196/377/4 209/378/4 211/379/4 207/380/4
f 206/381/5 212/382/5 210/383/5 198/384/5
